<?xml version="1.0" standalone="no"?><!DOCTYPE svg PUBLIC "-//W3C//DTD SVG 1.1//EN" "http://www.w3.org/Graphics/SVG/1.1/DTD/svg11.dtd"><svg t="1578998021697" class="icon" viewBox="0 0 1024 1024" version="1.1" xmlns="http://www.w3.org/2000/svg" p-id="2345" xmlns:xlink="http://www.w3.org/1999/xlink" width="200" height="200"><defs><style type="text/css"></style></defs><path d="M0 0h1024v1024H0z" fill="#FFD138" p-id="2346"></path><path d="M31.478519 31.478519h960.853333v960.853333H31.478519z" fill="#FDE6A1" p-id="2347"></path><path d="M31.478519 31.478519h960.853333v761.742222H31.478519z" fill="#FFFFFF" p-id="2348"></path><path d="M174.26963 146.014815a7.205926 7.205926 0 1 1-7.016297 7.016296 7.205926 7.205926 0 0 1 7.016297-7.016296zM174.26963 126.293333a8.533333 8.533333 0 1 1 0 17.066667 8.533333 8.533333 0 0 1 0-17.066667z" fill="#16B2BA" p-id="2349"></path><path d="M196.266667 135.964444a8.343704 8.343704 0 0 0-8.533334 8.533334 7.964444 7.964444 0 0 0 3.792593 7.016296 78.885926 78.885926 0 0 0-14.980741 28.823704v-16.877037h-3.792592v16.877037A75.851852 75.851852 0 0 0 157.961481 151.703704a7.964444 7.964444 0 0 0 3.602963-7.016297 8.343704 8.343704 0 0 0-8.533333-8.533333 8.722963 8.722963 0 0 0-8.912592 8.533333 8.343704 8.343704 0 0 0 8.533333 8.533334h1.137778a80.023704 80.023704 0 0 1 18.962963 53.096296h3.792592a79.644444 79.644444 0 0 1 18.962963-53.096296 8.343704 8.343704 0 0 0 8.722963-8.533334 8.912593 8.912593 0 0 0-7.964444-8.722963z" fill="#16B2BA" p-id="2350"></path><path d="M174.26963 110.554074a55.561481 55.561481 0 1 1-55.561482 55.561482 55.561481 55.561481 0 0 1 55.561482-55.561482z m0-3.792593a59.354074 59.354074 0 1 0 59.354074 59.354075 59.733333 59.733333 0 0 0-59.354074-59.354075zM255.241481 135.964444h11.188149l14.222222 43.994075 14.601481-43.994075H303.407407l14.601482 43.994075 13.463704-43.994075h10.808888L322.37037 195.697778h-8.912592l-14.601482-42.666667-14.411852 42.666667h-8.912592zM351.952593 135.964444h43.994074v9.291852h-33.564445v15.36h29.392593V170.666667h-29.392593v15.549629h33.943704v9.481482h-44.373333zM407.893333 135.964444h21.997037a29.202963 29.202963 0 0 1 31.288889 29.392593 29.392593 29.392593 0 0 1-31.288889 29.582222h-21.997037z m10.42963 9.291852v40.201482h11.567407a18.962963 18.962963 0 0 0 20.48-20.100741 18.962963 18.962963 0 0 0-20.48-20.100741h-11.567407zM472.746667 135.964444h21.997037a29.392593 29.392593 0 0 1 31.478518 29.392593 29.582222 29.582222 0 0 1-31.478518 29.582222h-21.997037z m10.429629 9.291852v40.201482h11.567408a18.962963 18.962963 0 0 0 20.669629-20.100741 18.962963 18.962963 0 0 0-20.669629-20.100741h-11.567408zM537.78963 135.964444h10.429629v59.354075h-10.429629zM562.820741 135.964444h9.671111l31.668148 40.96V135.964444h10.05037v59.354075h-8.912592l-32.805926-42.287408v42.287408h-10.050371V135.964444zM625.777778 165.736296a30.340741 30.340741 0 0 1 30.53037-30.909629 31.288889 31.288889 0 0 1 22.755556 8.154074l-6.257778 8.722963a25.031111 25.031111 0 0 0-16.877037-6.257778 19.911111 19.911111 0 0 0-18.962963 20.859259 18.962963 18.962963 0 0 0 20.100741 21.238519 23.514074 23.514074 0 0 0 14.222222-4.361482V170.666667h-14.980741v-8.343704h25.031111v25.031111a37.925926 37.925926 0 0 1-24.651852 9.291852A30.151111 30.151111 0 0 1 625.777778 165.736296zM687.028148 135.964444h7.016296l16.877037 49.303704 16.308149-49.682963h5.688889l16.308148 49.682963 16.877037-49.303704h7.016296l-21.238519 59.733334h-5.499259l-16.497778-48.165926-16.308148 48.165926h-5.688889zM783.17037 135.964444h6.826667v59.354075h-6.826667zM805.925926 135.964444h25.41037a24.272593 24.272593 0 0 1 16.877037 5.878519 16.308148 16.308148 0 0 1 4.740741 11.567407 17.825185 17.825185 0 0 1-15.928889 17.635556l18.962963 24.272593h-8.154074l-18.014815-22.755556h-16.687407v23.134815h-6.826667z m25.031111 30.151112c9.102222 0 15.36-4.740741 15.36-12.325926 0-7.016296-5.688889-11.567407-14.980741-11.567408h-18.962963v23.893334zM866.038519 135.964444h43.045925v5.878519H872.296296v20.29037h32.426667v5.878519H872.296296V189.62963h37.925926v6.068148h-44.183703z" fill="#16B2BA" p-id="2351"></path><path d="M134.257778 424.77037l-45.700741 118.897778h28.823704l7.585185-20.48H176.355556l7.774814 20.48h28.823704L167.063704 424.77037zM132.740741 501.94963l18.962963-52.717037 18.962963 52.717037zM327.49037 509.914074l-22.565926-85.143704h-19.721481l-22.186667 85.143704-21.807407-85.143704h-27.685926l34.512593 118.897778h26.737777l20.100741-81.161481 21.617778 81.161481h26.548148l33.185185-118.897778h-27.685926l-21.048889 85.143704zM729.505185 433.114074a52.527407 52.527407 0 0 0-16.497778-6.447407 111.122963 111.122963 0 0 0-21.997037-2.085926h-44.562963v119.087407h43.614815a69.025185 69.025185 0 0 0 49.493334-14.980741 56.888889 56.888889 0 0 0 17.825185-43.994074 64.284444 64.284444 0 0 0-7.964445-29.582222 55.561481 55.561481 0 0 0-19.911111-21.997037zM719.454815 512a40.011852 40.011852 0 0 1-28.634074 9.860741h-18.962963v-75.851852h18.962963a39.253333 39.253333 0 0 1 28.634074 10.05037 37.925926 37.925926 0 0 1 10.24 27.875556 36.598519 36.598519 0 0 1-10.24 28.065185zM422.874074 424.201481l-45.700741 118.897778h28.823704l7.585185-20.29037h51.38963l7.774815 20.29037h28.823703L455.111111 424.201481z m-1.706667 77.17926l18.962963-52.527408 18.962963 52.527408zM866.607407 486.968889a36.788148 36.788148 0 0 0-3.792592-3.982222 67.508148 67.508148 0 0 0-26.358519-10.808889h-2.465185l-5.499259-1.517037c-17.066667-3.413333-21.807407-5.499259-23.324445-12.894815a11.377778 11.377778 0 0 1 4.930371-10.42963 25.979259 25.979259 0 0 1 11.188148-2.654815 65.611852 65.611852 0 0 1 14.222222 2.275556 62.008889 62.008889 0 0 1 20.66963 11.567407l14.791111-18.962963a39.822222 39.822222 0 0 0-15.36-10.429629 72.817778 72.817778 0 0 0-29.202963-6.637037 53.475556 53.475556 0 0 0-34.512593 10.429629 32.805926 32.805926 0 0 0-13.274074 27.117037 28.634074 28.634074 0 0 0 2.275556 11.567408 23.324444 23.324444 0 0 0 5.688889 8.343704 9.860741 9.860741 0 0 0 2.654815 3.034074 78.317037 78.317037 0 0 0 28.444444 11.946666h2.465185l5.499259 1.327408c17.066667 3.602963 20.859259 5.688889 22.186667 13.084444a10.998519 10.998519 0 0 1-4.93037 10.42963 64.094815 64.094815 0 0 1-18.962963 3.602963 113.777778 113.777778 0 0 1-17.445926-3.223704 56.888889 56.888889 0 0 1-17.445926-12.705185l-14.791111 18.962963a34.322963 34.322963 0 0 0 15.17037 11.377778 94.814815 94.814815 0 0 0 29.202963 7.585185 52.906667 52.906667 0 0 0 41.908148-10.42963 29.961481 29.961481 0 0 0 12.136297-25.979259 39.632593 39.632593 0 0 0-2.275556-13.653333 23.134815 23.134815 0 0 0-3.792593-8.343704zM933.736296 426.666667a21.238519 21.238519 0 0 0-4.551111-7.016297 25.031111 25.031111 0 0 0-7.205926-4.74074 21.428148 21.428148 0 0 0-8.533333-1.706667 20.48 20.48 0 0 0-8.343704 1.706667 21.238519 21.238519 0 0 0-7.016296 4.551111 24.082963 24.082963 0 0 0-4.93037 7.395555 20.48 20.48 0 0 0-1.896297 9.291852 21.238519 21.238519 0 0 0 1.706667 8.343704 21.807407 21.807407 0 0 0 4.740741 7.016296 23.134815 23.134815 0 0 0 7.205926 4.930371 21.238519 21.238519 0 0 0 16.687407 0 23.134815 23.134815 0 0 0 7.205926-4.930371 17.825185 17.825185 0 0 0 4.740741-7.016296 18.962963 18.962963 0 0 0 1.706666-8.343704 21.428148 21.428148 0 0 0-1.517037-9.481481z m-2.465185 15.928889a18.962963 18.962963 0 0 1-4.171852 6.257777 22.565926 22.565926 0 0 1-6.257778 4.171852 20.29037 20.29037 0 0 1-7.395555 1.327408 18.962963 18.962963 0 0 1-7.395556-1.327408 22.565926 22.565926 0 0 1-6.257777-4.171852 21.048889 21.048889 0 0 1-4.171852-6.447407 18.962963 18.962963 0 0 1-1.517037-7.205926 18.962963 18.962963 0 0 1 1.517037-7.395556 18.962963 18.962963 0 0 1 4.361481-6.447407 18.962963 18.962963 0 0 1 6.068148-3.982222 18.962963 18.962963 0 0 1 14.791111 0 18.962963 18.962963 0 0 1 6.447408 4.171852 21.807407 21.807407 0 0 1 3.982222 6.257777 20.859259 20.859259 0 0 1 1.517037 7.585186 18.962963 18.962963 0 0 1-1.517037 7.205926z" fill="#231F20" p-id="2352"></path><path d="M921.979259 436.148148a6.826667 6.826667 0 0 0 2.275556-5.309629 8.533333 8.533333 0 0 0-3.223704-6.257778 11.757037 11.757037 0 0 0-7.016296-1.517037h-9.291852v25.6h4.171852v-10.050371h4.551111l6.068148 10.050371h4.93037l-7.016296-10.42963a12.705185 12.705185 0 0 0 4.551111-2.085926z m-8.533333 0h-4.551111v-8.912592h4.361481a9.671111 9.671111 0 0 1 5.30963 1.137777 3.792593 3.792593 0 0 1 1.517037 3.602963 3.413333 3.413333 0 0 1-1.517037 3.223704 8.722963 8.722963 0 0 1-5.12 0.948148zM593.73037 498.157037a37.925926 37.925926 0 0 0-9.291851-72.628148c-14.980741-1.137778-30.151111 0-45.321482 0h-17.256296v119.087407h25.41037v-42.666666h18.962963s23.134815 42.097778 24.462222 42.097777h27.685926l-26.737778-44.752592z m-2.275555-34.133333a15.54963 15.54963 0 0 1-15.170371 15.17037h-29.013333v-31.288889h31.099259a14.411852 14.411852 0 0 1 13.084445 16.118519z" fill="#231F20" p-id="2353"></path><path d="M169.528889 335.075556a29.771852 29.771852 0 1 1 59.543704 0 29.771852 29.771852 0 1 1-59.543704 0z m51.579259 0a22.186667 22.186667 0 0 0-17.445926-23.893334 21.238519 21.238519 0 0 0-25.41037 16.308148 24.651852 24.651852 0 0 0 13.463704 30.340741 16.308148 16.308148 0 0 0 4.361481 1.137778 21.997037 21.997037 0 0 0 25.031111-23.703704zM773.30963 335.265185a29.771852 29.771852 0 1 1-59.354074 0 29.771852 29.771852 0 1 1 59.354074 0z m-29.392593 23.893334a21.997037 21.997037 0 0 0 21.617778-24.082963 22.565926 22.565926 0 0 0-21.997037-24.272593 22.186667 22.186667 0 0 0-21.807408 24.651852 21.617778 21.617778 0 0 0 22.186667 23.703704zM246.518519 305.493333h7.205925v38.115556a14.980741 14.980741 0 0 0 16.687408 15.54963 14.980741 14.980741 0 0 0 16.687407-15.54963v-35.081482a16.308148 16.308148 0 0 1 0-2.844444h7.205926a8.912593 8.912593 0 0 1 0 3.223704v37.925926a20.66963 20.66963 0 0 1-22.376296 18.962963c-14.411852 0-24.082963-5.688889-25.031111-18.962963S246.518519 319.905185 246.518519 305.493333zM470.091852 356.124444l3.982222-5.309629a24.462222 24.462222 0 0 0 21.048889 8.343704 10.998519 10.998519 0 0 0 11.567407-8.912593c0-4.551111-1.896296-7.964444-8.343703-10.24s-10.619259-3.034074-15.73926-4.93037a13.842963 13.842963 0 0 1-10.998518-14.791112 15.17037 15.17037 0 0 1 11.757037-14.601481 29.582222 29.582222 0 0 1 29.961481 6.826667l-4.361481 5.499259a23.134815 23.134815 0 0 0-18.962963-6.637037 15.928889 15.928889 0 0 0-7.774815 3.223704 6.826667 6.826667 0 0 0 0.948148 11.567407 79.265185 79.265185 0 0 0 10.050371 3.982222 81.540741 81.540741 0 0 1 13.463703 4.930371 15.928889 15.928889 0 0 1 1.706667 26.737777 30.53037 30.53037 0 0 1-38.305185-5.688889zM690.631111 337.92h-35.081481v26.737778h-7.016297v-58.974815h6.826667v25.031111h34.891852v-25.220741h7.395555v59.164445h-7.016296zM312.50963 305.303704h25.22074a17.445926 17.445926 0 0 1 17.445926 17.825185 17.825185 17.825185 0 0 1-17.445926 18.962963h-17.825185v23.324444h-7.395555z m7.585185 7.016296v21.997037h17.825185a10.42963 10.42963 0 0 0 9.291852-10.42963 10.05037 10.05037 0 0 0-8.533333-11.188148 151.703704 151.703704 0 0 0-18.583704-0.379259zM425.528889 337.540741v20.48h31.099259v6.826666h-37.925926v-59.354074h37.925926v6.068148h-31.099259v18.962963h30.53037v6.637037zM887.845926 311.751111v18.962963h30.53037v6.637037h-30.34074v20.48h31.099259v6.826667h-37.925926v-59.164445h37.925926v6.257778zM157.771852 316.302222l-5.688889 3.034074a22.186667 22.186667 0 0 0-33.185185-1.517037 26.168889 26.168889 0 0 0 0 35.081482A21.807407 21.807407 0 0 0 151.703704 350.814815l5.688889 3.034074a26.548148 26.548148 0 0 1-30.90963 11.188148 31.288889 31.288889 0 0 1 0-59.543704 27.496296 27.496296 0 0 1 31.288889 10.808889zM633.931852 316.112593l-5.688889 3.223703a21.807407 21.807407 0 0 0-33.185185-1.517037 25.979259 25.979259 0 0 0 0 35.081482 22.376296 22.376296 0 0 0 32.995555-2.085926l5.688889 3.223704a27.496296 27.496296 0 0 1-32.047407 10.808888 31.288889 31.288889 0 0 1 0-59.164444 28.254815 28.254815 0 0 1 32.237037 10.42963zM860.539259 351.004444l5.12 2.844445a26.168889 26.168889 0 0 1-28.254815 11.757037 29.771852 29.771852 0 0 1-24.651851-28.254815 30.151111 30.151111 0 0 1 18.962963-31.288889 27.496296 27.496296 0 0 1 33.374814 10.050371l-2.844444 1.706666-2.654815 1.517037c-12.136296-10.42963-24.272593-10.998519-33.185185-1.706666a26.168889 26.168889 0 0 0 0 35.271111 22.565926 22.565926 0 0 0 34.133333-1.896297zM368.64 305.493333h7.016296v52.527408h27.685926v6.826666h-34.702222zM789.807407 305.493333H796.444444v59.354074h-6.826666zM528.497778 322.37037a19.911111 19.911111 0 0 0 5.499259-7.964444 4.361481 4.361481 0 0 1-5.30963-5.30963 4.93037 4.93037 0 0 1 3.602963-4.171852 6.447407 6.447407 0 0 1 6.257778 2.654815 8.533333 8.533333 0 0 1 0 9.102222l-6.637037 8.722963z" fill="#231F20" p-id="2354"></path><path d="M436.148148 894.862222a63.905185 63.905185 0 0 1 7.585185-31.857778 31.668148 31.668148 0 0 1 54.992593-1.517037 67.128889 67.128889 0 0 1-2.465185 67.697778 31.288889 31.288889 0 0 1-50.251852 0 59.354074 59.354074 0 0 1-9.860741-34.322963z m58.974815 0a62.008889 62.008889 0 0 0-4.93037-25.031111 19.911111 19.911111 0 0 0-36.977778 0 61.62963 61.62963 0 0 0 0 50.441482 18.962963 18.962963 0 0 0 18.014815 11.757037 20.100741 20.100741 0 0 0 18.962963-11.946667 47.976296 47.976296 0 0 0 4.551111-25.220741zM382.862222 929.185185h42.287408v10.24h-62.767408v-8.343704a409.6 409.6 0 0 0 39.822222-35.271111 49.114074 49.114074 0 0 0 9.481482-14.98074 16.308148 16.308148 0 0 0-14.791111-23.514074 30.90963 30.90963 0 0 0-27.496296 10.808888l-7.205926-7.016296a39.822222 39.822222 0 0 1 54.992592-6.068148 27.496296 27.496296 0 0 1 4.930371 31.099259 81.540741 81.540741 0 0 1-21.428149 26.737778c-6.068148 5.499259-12.515556 10.619259-18.962963 15.928889zM590.885926 894.862222a65.042963 65.042963 0 0 1 7.585185-32.047407 31.668148 31.668148 0 0 1 54.992593-1.327408 67.128889 67.128889 0 0 1-2.085926 67.697778 31.478519 31.478519 0 0 1-50.251852 0 59.733333 59.733333 0 0 1-10.24-34.322963z m58.974815 0a61.62963 61.62963 0 0 0-5.12-25.031111 18.962963 18.962963 0 0 0-18.962963-12.705185 18.962963 18.962963 0 0 0-18.962963 12.325926 60.871111 60.871111 0 0 0 0 50.441481 18.962963 18.962963 0 0 0 18.014815 11.567408 18.962963 18.962963 0 0 0 18.962963-11.946667 47.217778 47.217778 0 0 0 6.068148-24.841481zM537.979259 929.185185h42.477037v10.24h-62.957037v-9.291852a401.825185 401.825185 0 0 0 39.822222-35.081481 54.044444 54.044444 0 0 0 9.481482-14.980741 16.308148 16.308148 0 0 0-14.791111-23.514074 31.288889 31.288889 0 0 0-27.496296 10.619259l-7.205926-6.826666a39.822222 39.822222 0 0 1 55.561481-6.068149 27.496296 27.496296 0 0 1 4.740741 31.09926 81.540741 81.540741 0 0 1-21.428148 26.737778c-6.068148 5.499259-12.325926 10.619259-18.962963 15.928888z" fill="#221F1F" p-id="2355"></path><path d="M292.219259 645.878519l33.943704 4.74074-24.462222 23.893334 6.068148 33.754074-30.53037-15.73926-30.151112 16.118519 5.49926-33.754074-24.651852-23.703704 33.943704-5.309629 14.98074-30.72 15.36 30.72zM409.6 645.878519l33.943704 4.74074-24.272593 23.893334 5.878519 33.754074-30.340741-15.73926-30.340741 16.118519 5.688889-33.754074-24.651852-23.703704 33.754074-5.309629 14.980741-30.72 15.36 30.72zM527.17037 645.878519l33.943704 4.74074-24.462222 23.893334 6.068148 33.754074-30.53037-15.73926-30.151111 16.118519 5.499259-33.754074-24.651852-23.703704 33.943704-5.309629 14.98074-30.72 15.36 30.72zM644.551111 645.878519l33.943704 4.74074-24.272593 23.893334 5.878519 33.754074-30.340741-15.73926-30.340741 16.118519 5.688889-33.754074-24.651852-23.703704 33.943704-5.309629 14.980741-30.72 15.17037 30.72zM762.121481 645.878519l33.943704 4.74074-24.462222 23.893334 6.068148 33.754074-30.53037-15.73926-30.151111 16.118519 5.499259-33.754074-24.651852-23.703704 33.943704-5.309629 14.98074-30.72 15.36 30.72z" fill="#F0B124" p-id="2356"></path></svg>