<svg id="图层_1" data-name="图层 1" xmlns="http://www.w3.org/2000/svg" xmlns:xlink="http://www.w3.org/1999/xlink" viewBox="0 0 110.33 78.98"><defs><style>.cls-1,.cls-2{fill:none;}.cls-1{clip-rule:evenodd;}.cls-3{clip-path:url(#clip-path);}.cls-4{clip-path:url(#clip-path-2);}.cls-5{fill:#efeeee;}.cls-6{clip-path:url(#clip-path-3);}.cls-7{fill:#3fab52;}.cls-8{clip-path:url(#clip-path-5);}.cls-9{isolation:isolate;}.cls-10{clip-path:url(#clip-path-7);}.cls-11{clip-path:url(#clip-path-8);}.cls-12{clip-path:url(#clip-path-9);}.cls-13{fill:#267138;}.cls-14{clip-path:url(#clip-path-10);}.cls-15{fill:#fff;}.cls-16{clip-path:url(#clip-path-12);}.cls-17{fill:#2d9240;}.cls-18{clip-path:url(#clip-path-14);}.cls-19{fill:#424242;}.cls-20{clip-path:url(#clip-path-16);}.cls-21{clip-path:url(#clip-path-18);}.cls-22{clip-path:url(#clip-path-20);}.cls-23{clip-path:url(#clip-path-22);}.cls-24{clip-path:url(#clip-path-24);}.cls-25{clip-path:url(#clip-path-26);}.cls-26{clip-path:url(#clip-path-28);}.cls-27{clip-path:url(#clip-path-30);}.cls-28{clip-path:url(#clip-path-32);}.cls-29{clip-path:url(#clip-path-34);}.cls-30{clip-path:url(#clip-path-36);}.cls-31{clip-path:url(#clip-path-38);}.cls-32{clip-path:url(#clip-path-40);}.cls-33{fill:#797a79;}.cls-34{clip-path:url(#clip-path-42);}.cls-35{clip-path:url(#clip-path-44);}.cls-36{clip-path:url(#clip-path-45);}.cls-37{clip-path:url(#clip-path-46);}.cls-38{clip-path:url(#clip-path-47);}.cls-39{clip-path:url(#clip-path-48);}.cls-40{clip-path:url(#clip-path-49);}.cls-41{clip-path:url(#clip-path-50);}.cls-42{clip-path:url(#clip-path-51);}.cls-43{clip-path:url(#clip-path-52);}.cls-44{clip-path:url(#clip-path-53);}.cls-45{clip-path:url(#clip-path-54);}.cls-46{clip-path:url(#clip-path-55);}.cls-47{clip-path:url(#clip-path-56);}.cls-48{clip-path:url(#clip-path-57);}.cls-49{clip-path:url(#clip-path-58);}.cls-50{clip-path:url(#clip-path-59);}.cls-51{clip-path:url(#clip-path-60);}.cls-52{clip-path:url(#clip-path-61);}.cls-53{clip-path:url(#clip-path-62);}.cls-54{clip-path:url(#clip-path-63);}</style><clipPath id="clip-path"><path class="cls-1" d="M11.82,0H98.51q11.82,0,11.82,11.84V67.13Q110.33,79,98.51,79H11.82Q0,79,0,67.13V11.84Q0,0,11.82,0"/></clipPath><clipPath id="clip-path-2"><rect class="cls-2" x="-1170" y="-486" width="1920" height="1734"/></clipPath><clipPath id="clip-path-3"><path class="cls-1" d="M14.44,52.05a296.29,296.29,0,0,1,95.83,3.84v11a11.73,11.73,0,0,1-10,11.78,15.2,15.2,0,0,1-2.43.18c-6.49,0-13.58,0-20.07,0-.34,0-24-16.41-37.61-21.11A118.84,118.84,0,0,0,20.5,52.88c-2-.32-4-.56-6.06-.83"/></clipPath><clipPath id="clip-path-5"><rect class="cls-2" x="0.01" y="52.11" width="77.78" height="26.85"/></clipPath><clipPath id="clip-path-7"><rect class="cls-2" x="-1" y="52" width="79" height="27"/></clipPath><clipPath id="clip-path-8"><path class="cls-1" d="M77.79,78.93c-.38,0-.58,0-.77,0H12.17a11.86,11.86,0,0,1-12-9.6A12.27,12.27,0,0,1,0,67V54.9c0-.52.15-.68.66-.76,4.39-.65,8.77-1.39,13.17-2a16,16,0,0,1,3.83.21A109.94,109.94,0,0,1,41.81,58,115.84,115.84,0,0,1,76,77.42c.53.46,1.08.92,1.79,1.51"/></clipPath><clipPath id="clip-path-9"><rect class="cls-2" y="52" width="78" height="27"/></clipPath><clipPath id="clip-path-10"><path class="cls-1" d="M25.36,72.83H16a1.3,1.3,0,0,1-1.28-1.25V62.12h11.9v9.46a1.28,1.28,0,0,1-1.28,1.25m-3-6.67a1.66,1.66,0,1,0-2.16,1.59v2.18a.54.54,0,0,0,.11.53.52.52,0,0,0,.88-.24.71.71,0,0,0,0-.29V67.75a1.67,1.67,0,0,0,1.17-1.59m-5.48-4.51H15.55a5.23,5.23,0,0,1,1.95-3.48,5.12,5.12,0,0,1,3.82-1.08,5.07,5.07,0,0,1,1.71.52,5.19,5.19,0,0,1,2.86,4h-1.3c-.06,0-.09,0-.1-.08a3.86,3.86,0,0,0-6.57-2,3.72,3.72,0,0,0-1,2v.06c0,.07,0,.06,0,.06"/></clipPath><clipPath id="clip-path-12"><path class="cls-1" d="M9,12.07c-.06.26-.11.52-.17.77s-.19.64-.25,1a9.65,9.65,0,0,0-.26,1.61,2.45,2.45,0,0,0,1.05,2.26l.31.22a.68.68,0,0,0,.83,0c.3-.25.58-.54.88-.78,1.05-.84,2.07-1.71,3.14-2.53.83-.63,1.71-1.22,2.59-1.78.51-.34,1.07-.6,1.61-.89l1-.51c.5-.21,1-.41,1.49-.6s1-.33,1.54-.49a14,14,0,0,1,4.94-.65,15.9,15.9,0,0,1,2.38.36,11.45,11.45,0,0,1,2.58.7c.49.19,1,.33,1.49.53a10.72,10.72,0,0,1,1.08.52l1.09.57v.1a4.88,4.88,0,0,1-.76-.07,6.07,6.07,0,0,0-3.08.08,4.29,4.29,0,0,0-1,.51,2.61,2.61,0,0,0-.46.42.68.68,0,0,0-.09,1l0,0c.83,1.14,1.83,2.32,2.72,3.55.77,1.05,1.53,2.09,2.22,3.2a18.52,18.52,0,0,1,1.26,2.42,16.41,16.41,0,0,1,1,2.55,12.9,12.9,0,0,1,.46,2.54,33.25,33.25,0,0,1,.05,3.46,20.39,20.39,0,0,1-.25,2.19,6,6,0,0,1-.14.93c-.06.3-.08.41-.13.59s-.16.59-.25.86A10.9,10.9,0,0,1,37.49,38c-.32.74-.67,1.48-1,2.21a.24.24,0,0,1,0,.14l-.11-.06c0-.33.09-.67.09-1a6.18,6.18,0,0,0-.3-2.3c-.18-.41-.32-.83-.52-1.2a3.68,3.68,0,0,0-.48-.75c-.16-.2-.53-.15-.8.1s-.55.52-.83.76c-.93.83-1.88,1.67-2.83,2.54-.29.28-.61.56-.94.83-.48.35-1,.68-1.48,1s-1.28.69-2,1a9.21,9.21,0,0,1-1.16.5c-.45.17-.91.35-1.37.5a11.22,11.22,0,0,1-2.67.66,9.45,9.45,0,0,0-1.3.18A12.78,12.78,0,0,1,16.7,43c-.49-.06-1-.07-1.47-.13a4.66,4.66,0,0,1-1-.23c-.69-.17-1.39-.33-2.08-.53-.48-.17-.95-.36-1.4-.57S10,41.17,9.59,41s-.47-.28-.72-.41v-.11l1.2.21a4.33,4.33,0,0,0,2.26,0,3.76,3.76,0,0,0,1.63-1,.76.76,0,0,0,.27-.53.8.8,0,0,0-.19-.56.93.93,0,0,0-.15-.13,11.44,11.44,0,0,1-1-1.11l-1.66-1.93c-.51-.6-1.06-1.19-1.52-1.83a13.44,13.44,0,0,1-.89-1.73L8,30.13c-.2-.42-.39-.84-.56-1.3a17.32,17.32,0,0,1-.57-1.72c-.22-.88-.4-1.78-.54-2.68a15.13,15.13,0,0,1-.12-2.13,24.7,24.7,0,0,1,.18-3,22.64,22.64,0,0,1,.56-2.57c.15-.59.33-1.15.52-1.73a5.94,5.94,0,0,1,.38-1c.31-.63.65-1.25,1-1.89A2.09,2.09,0,0,1,8.92,12Zm16.35,2.25v-.07c-.68.14-1.36.32-2.07.42a10.84,10.84,0,0,0-2.81.9,12.61,12.61,0,0,0-2,1.11c-1,.63-1.88,1.32-2.78,2-.69.54-1.34,1.14-2,1.71l-2.76,2.46a1.08,1.08,0,0,0-.37.88,7.17,7.17,0,0,0,.08,1,15.08,15.08,0,0,0,.55,2.57c.22.48.3,1,.52,1.51.41.83.9,1.63,1.36,2.45a13.63,13.63,0,0,0,2,2.56c1,1,1.91,2,2.87,3,.44.46.88.93,1.33,1.38a1,1,0,0,0,.48.25,6.63,6.63,0,0,0,1.26,0c.79-.13,1.58-.3,2.37-.46h.06c.5-.21,1-.39,1.51-.62a13.12,13.12,0,0,0,1.7-.9c.68-.42,1.32-.93,2-1.41s1.15-.95,1.69-1.46,1-1.1,1.49-1.67.86-1,1.28-1.57l.78-1a1.68,1.68,0,0,0,.35-.59,4.92,4.92,0,0,0,0-.94,8.27,8.27,0,0,0-.49-2.36,7.42,7.42,0,0,0-.44-1.1,18.59,18.59,0,0,0-1-1.74c-.36-.57-.92-1.42-1.41-2.09s-1.12-1.46-1.66-2.19L28,16.73c-.42-.55-1-1.14-1.37-1.74A1.16,1.16,0,0,0,25.37,14.32Z"/></clipPath><clipPath id="clip-path-14"><polygon class="cls-1" points="62.67 36.2 58.3 36.2 58.3 40.34 63.23 40.34 63.23 41.57 56.83 41.57 56.83 30.13 62.94 30.13 62.94 31.34 58.3 31.34 58.3 34.98 62.67 34.98 62.67 36.2"/></clipPath><clipPath id="clip-path-16"><path class="cls-1" d="M63.34,41.72H56.68V30h6.4V31.5H58.46v3.33h4.38v1.52H58.46v3.84H63.4ZM57,41.42H63v-.9H58.11V36.05h4.37v-.92H58.15v-4h4.64v-.93H57Zm11,.15-3.7-11.44h1.58l1.76,5.63c.48,1.54.91,3,1.21,4.28.32-1.32.77-2.76,1.28-4.24L72,30.13h1.56l-4,11.44Z"/></clipPath><clipPath id="clip-path-18"><path class="cls-1" d="M69.67,41.72H67.86L64.06,30H66L67.85,36c.37,1.25.73,2.39,1,3.49.27-1.06.65-2.27,1.16-3.77L72,30h1.88Zm-1.6-.3h1.4l3.94-11.14H72.17l-1.86,5.55c-.59,1.72-1,3.06-1.27,4.23v.1h-.28v-.11c-.27-1.22-.68-2.55-1.1-4l-.1-.31-1.73-5.54H64.48ZM79,39.8a5,5,0,0,0,2.62.74c1.49,0,2.35-.79,2.35-2s-.6-1.67-2.14-2.28c-1.82-.63-3-1.63-3-3.23,0-1.77,1.46-3.09,3.65-3.09a5.39,5.39,0,0,1,2.49.55l-.42,1.2a4.43,4.43,0,0,0-2.14-.55c-1.54,0-2.12.93-2.12,1.72,0,1.07.68,1.6,2.24,2.2,1.92.77,2.88,1.67,2.88,3.34s-1.3,3.33-4,3.33a5.75,5.75,0,0,1-2.9-.75Z"/></clipPath><clipPath id="clip-path-20"><path class="cls-1" d="M81.54,41.9a5.89,5.89,0,0,1-3-.77l-.1-.06L79,39.54l.17.1a4.92,4.92,0,0,0,2.53.73c1.37,0,2.22-.7,2.22-1.81s-.56-1.56-2.08-2.14c-2.05-.72-3.05-1.83-3.05-3.37,0-1.91,1.57-3.24,3.8-3.24a5.33,5.33,0,0,1,2.59.57l.11.05-.5,1.49-.17-.06a4.25,4.25,0,0,0-2.07-.53c-1.36,0-2,.79-2,1.57s.52,1.43,2.14,2.08c2.12.84,3,1.86,3,3.5s-1.06,3.44-4.08,3.44Zm-2.72-1a5.85,5.85,0,0,0,2.72.67c2.81,0,3.81-1.71,3.81-3.17s-.78-2.41-2.79-3.22c-1.52-.59-2.34-1.14-2.34-2.34,0-.93.7-1.87,2.27-1.87a4.71,4.71,0,0,1,2.08.49l.3-.93a5.65,5.65,0,0,0-2.33-.47c-2.07,0-3.5,1.22-3.5,3,0,1.41,1,2.43,2.87,3.1,1.61.67,2.21,1.29,2.21,2.41,0,1.28-1,2.08-2.5,2.08A5.31,5.31,0,0,1,79.09,40Zm8.88-1.11a5.17,5.17,0,0,0,2.62.75c1.49,0,2.37-.8,2.37-2s-.61-1.67-2.15-2.28c-1.83-.63-3-1.63-3-3.23C87.57,31.3,89,30,91.23,30a5.32,5.32,0,0,1,2.48.55l-.41,1.2a4.46,4.46,0,0,0-2.14-.55c-1.54,0-2.12.93-2.12,1.67,0,1.07.69,1.6,2.25,2.2,1.9.77,2.9,1.67,2.9,3.34s-1.3,3.38-4,3.38a5.92,5.92,0,0,1-2.9-.76Z"/></clipPath><clipPath id="clip-path-22"><path class="cls-1" d="M90.22,41.9a5.89,5.89,0,0,1-3-.77l-.09-.06.47-1.53.16.1a5,5,0,0,0,2.54.73c1.37,0,2.22-.7,2.22-1.81S92,37,90.49,36.42c-2.07-.72-3.06-1.83-3.06-3.37,0-1.91,1.56-3.24,3.8-3.24a5.28,5.28,0,0,1,2.56.57l.11.05-.49,1.49-.15-.06a4.14,4.14,0,0,0-2.07-.53c-1.37,0-2,.79-2,1.57s.53,1.43,2.16,2.08c2.11.84,3,1.86,3,3.5s-1.07,3.44-4.1,3.44Zm-2.72-1a5.85,5.85,0,0,0,2.72.67C93,41.63,94,39.93,94,38.46s-.79-2.41-2.79-3.22c-1.52-.62-2.35-1.16-2.35-2.36,0-.93.72-1.87,2.28-1.87a4.38,4.38,0,0,1,2.07.49l.31-.93a5.45,5.45,0,0,0-2.32-.48c-2.07,0-3.5,1.22-3.5,3,0,1.41.93,2.43,2.85,3.1,1.62.63,2.25,1.3,2.25,2.42,0,1.28-1,2.08-2.51,2.08A5.24,5.24,0,0,1,87.75,40Zm9.08-10.78h1.47V40.31h4.82v1.25H96.58Z"/></clipPath><clipPath id="clip-path-24"><path class="cls-1" d="M103,41.72H96.43V30H98.2V40.16H103Zm-6.29-.3h6v-1H97.94V30.28H96.73Z"/></clipPath><clipPath id="clip-path-26"><path class="cls-1" d="M35.45,69.6a5.06,5.06,0,0,0,2.78.83A2.57,2.57,0,0,0,41,68.1v-.16c0-1-.56-1.7-1.91-2.47-1.66-.92-2.59-2-2.59-3.36,0-2.38,2-3.89,4.39-3.89a4.88,4.88,0,0,1,2.66.69L43,60.22a4.73,4.73,0,0,0-2.23-.56,2.34,2.34,0,0,0-1.73.52,2.39,2.39,0,0,0-.86,1.6,0,0,0,0,1,0,0c0,1.07.65,1.69,2,2.45,1.61.88,2.49,1.92,2.49,3.52,0,2.3-1.76,4.09-4.7,4.09A5.38,5.38,0,0,1,34.85,71Z"/></clipPath><clipPath id="clip-path-28"><path class="cls-1" d="M38,72.08a5.57,5.57,0,0,1-3.26-1l-.11-.1.71-1.67.19.15a5,5,0,0,0,2.68.83,2.38,2.38,0,0,0,2.61-2.15V68c0-.9-.54-1.58-1.81-2.3-1.84-1-2.7-2.13-2.7-3.53,0-2.37,2-4.08,4.59-4.08a5,5,0,0,1,2.78.72l.13.09-.71,1.67-.2-.11a4.32,4.32,0,0,0-2.12-.65,2.15,2.15,0,0,0-2.37,1.91v.08c0,.89.49,1.47,1.91,2.27,1.79,1,2.59,2.13,2.59,3.7,0,2.54-2,4.3-4.89,4.3ZM35.11,70.9a5.62,5.62,0,0,0,2.91.78c2.69,0,4.49-1.56,4.49-3.89,0-1.43-.71-2.43-2.39-3.34C38.78,63.7,38,63,38,61.83a2.53,2.53,0,0,1,2.73-2.37h0A4.74,4.74,0,0,1,43,60l.41-1a4.93,4.93,0,0,0-2.44-.57c-2.43,0-4.2,1.55-4.2,3.69,0,1.25.77,2.23,2.48,3.19,1.43.8,2,1.59,2,2.64a2.81,2.81,0,0,1-2.88,2.7h-.14a5.17,5.17,0,0,1-2.7-.76Zm17-5.42H47.39l-.91,4.82h5.34l-.27,1.39H44.64l2.47-13.2h6.62l-.22,1.39h-5l-.83,4.23h4.73Z"/></clipPath><clipPath id="clip-path-30"><path class="cls-1" d="M51.73,71.87H44.39l2.55-13.6h7l-.35,1.79H48.58l-.74,3.83h4.73l-.29,1.73H47.61L46.78,70h5.33Zm-6.91-.4h6.54l.17-1H46.24l1-5.22H52l.18-1H47.42l.89-4.61h5l.2-1H47.27Zm18.29-.24a8.36,8.36,0,0,1-3.39.65c-3.27,0-5.29-2.11-5.29-5.48A8.32,8.32,0,0,1,57.22,60a7.36,7.36,0,0,1,4.93-1.77A5.19,5.19,0,0,1,65,58.9l-.51,1.31a5.31,5.31,0,0,0-2.56-.55,5.49,5.49,0,0,0-3.73,1.49,7,7,0,0,0-2,5c0,2.36,1.06,4.31,3.94,4.31a6.85,6.85,0,0,0,2.79-.56Z"/></clipPath><clipPath id="clip-path-32"><path class="cls-1" d="M59.72,72.08c-3.38,0-5.48-2.18-5.48-5.68a8.55,8.55,0,0,1,2.85-6.52,7.61,7.61,0,0,1,5-1.81,5.28,5.28,0,0,1,3,.68l.11.09-.64,1.67-.2-.13a5.18,5.18,0,0,0-2.45-.52,5.24,5.24,0,0,0-3.59,1.43,6.74,6.74,0,0,0-2,4.88c0,1.53.49,4.11,3.77,4.11a6.57,6.57,0,0,0,2.69-.54l.24-.11.27,1.72-.13.07a8.73,8.73,0,0,1-3.46.66Zm2.42-13.61a7.15,7.15,0,0,0-4.77,1.72,8.18,8.18,0,0,0-2.72,6.21c0,3.26,2,5.28,5.1,5.28a8.34,8.34,0,0,0,3.16-.57l-.14-.9a7.15,7.15,0,0,1-2.63.46C57.5,70.67,56,69,56,66.17A7.18,7.18,0,0,1,58.07,61a5.73,5.73,0,0,1,3.87-1.54,5.86,5.86,0,0,1,2.48.47l.37-1a5.55,5.55,0,0,0-2.57-.47Zm7.18,0-1.46,7.84a7.39,7.39,0,0,0-.16,1.63,2.29,2.29,0,0,0,2,2.55,3.23,3.23,0,0,0,.44,0c1.77,0,3.09-1.22,3.65-4.17l1.47-7.86h1.6l-1.48,7.9c-.76,4-2.7,5.52-5.46,5.52a3.51,3.51,0,0,1-3.82-3.18,4.21,4.21,0,0,1,0-.71,9.93,9.93,0,0,1,.2-1.81l1.44-7.71Z"/></clipPath><clipPath id="clip-path-34"><path class="cls-1" d="M69.86,72.08a3.76,3.76,0,0,1-4-4.09,10.48,10.48,0,0,1,.2-1.86l1.46-7.86h2L68,66.34a7.74,7.74,0,0,0-.14,1.6,2.08,2.08,0,0,0,1.79,2.34,2.8,2.8,0,0,0,.41,0c1.82,0,3-1.31,3.46-4l1.5-8h2l-1.54,8.13c-.65,3.79-2.49,5.66-5.56,5.66Zm-2-13.41L66.44,66.2A10.65,10.65,0,0,0,66.25,68a3.33,3.33,0,0,0,2.93,3.68,2.58,2.58,0,0,0,.68,0c2.85,0,4.56-1.75,5.26-5.35l1.44-7.66h-1.2l-1.42,7.7c-.55,2.88-1.84,4.34-3.85,4.34a2.47,2.47,0,0,1-2.63-2.29,3.53,3.53,0,0,1,0-.46,8.51,8.51,0,0,1,.16-1.67L69,58.7Zm12.2,0a14.34,14.34,0,0,1,2.85-.28,4.56,4.56,0,0,1,3.11,1,2.71,2.71,0,0,1,1,2.16,4,4,0,0,1-3.09,3.8v.06c.91.31,1.34,1.31,1.45,2.66a22.06,22.06,0,0,0,.42,3.63H84.06c-.07-.28-.21-1.67-.31-3.2-.11-1.8-.75-2.56-2-2.56H80.27L79.2,71.67H77.61Zm.47,6H82a3.08,3.08,0,0,0,3.32-2.78v-.14c0-1.41-1-2.06-2.52-2.06a5.58,5.58,0,0,0-1.35.14Z"/></clipPath><clipPath id="clip-path-36"><path class="cls-1" d="M86,71.87H83.92v-.15c-.08-.33-.22-1.91-.31-3.23-.11-1.67-.66-2.38-1.86-2.38h-1.3l-1.08,5.76h-2L79.92,58.5h.13a13.86,13.86,0,0,1,2.88-.28,4.74,4.74,0,0,1,3.24,1,3,3,0,0,1,1,2.32,4.21,4.21,0,0,1-2.83,3.86A3.28,3.28,0,0,1,85.54,68a24,24,0,0,0,.39,3.59Zm-1.78-.4h1.25a27.76,27.76,0,0,1-.36-3.41c-.12-1.4-.56-2.23-1.32-2.5h-.13v-.35h.14a3.89,3.89,0,0,0,3-3.61,2.6,2.6,0,0,0-.88-2,4.4,4.4,0,0,0-3-.91,15,15,0,0,0-2.68.24L77.83,71.45H79l1.06-5.77h1.6c1.4,0,2.12.88,2.24,2.76A28,28,0,0,0,84.22,71.47ZM82,64.86H80.3l1-5.2h.12a5.51,5.51,0,0,1,1.4-.15c1.7,0,2.71.84,2.71,2.26a3.28,3.28,0,0,1-3.46,3.09H82Zm-1.2-.4H82a2.9,2.9,0,0,0,3.15-2.6v-.12c0-1.62-1.45-1.86-2.32-1.86a5.82,5.82,0,0,0-1.18.1Zm14.83,1H90.84l-.9,4.82h5.33L95,71.67H88.07l2.49-13.2h6.63l-.26,1.39h-5l-.83,4.23h4.73Z"/></clipPath><clipPath id="clip-path-38"><path class="cls-1" d="M95.19,71.87H87.84l2.55-13.6h7l-.35,1.79h-5l-.74,3.83h4.74l-.33,1.73H91L90.2,70h5.34Zm-6.91-.4h6.54l.18-1H89.68l1-5.22H95.4l.18-1H90.86l.89-4.63h5l.17-1H90.74Z"/></clipPath><clipPath id="clip-path-40"><path class="cls-1" d="M49.58,8.58V20a22,22,0,0,0,.08,2.44h-1.5l-.08-1.67H48a3.35,3.35,0,0,1-3.15,1.87c-2.28,0-4-2-4-4.81,0-3.17,1.91-5.08,4.19-5.08a3.09,3.09,0,0,1,2.82,1.46V8.58Zm-1.66,8.28a4.49,4.49,0,0,0-.06-.73,2.53,2.53,0,0,0-2.48-2c-1.76,0-2.82,1.55-2.82,3.64,0,1.92,1,3.53,2.78,3.53a2.62,2.62,0,0,0,2.49-2.09,3,3,0,0,0,.07-.73Zm6.84-6.53a1,1,0,0,1-.91,1.07h-.17a1,1,0,0,1-1-1v-.08a1,1,0,0,1,.21-.72,1,1,0,0,1,.67-.36h.15a1.05,1.05,0,0,1,1,1.08ZM52.81,22.48V13H54.5v9.46ZM65.7,21.11c0,2.2-.42,3.5-1.33,4.33A5.08,5.08,0,0,1,61,26.57a6.18,6.18,0,0,1-3.12-.78l.41-1.31a5.48,5.48,0,0,0,2.76.76c1.74,0,3-.94,3-3.34v-1a3.34,3.34,0,0,1-2.93,1.59c-2.34,0-4-2-4-4.62,0-3.22,2.07-5,4.22-5a3.11,3.11,0,0,1,2.9,1.62l0-1.44h1.5c0,.67-.08,1.43-.08,2.59ZM64,16.75a2.57,2.57,0,0,0-.68-1.81,2.54,2.54,0,0,0-1.75-.79h-.07c-1.6,0-2.78,1.39-2.78,3.59,0,1.85,1,3.42,2.78,3.42a2.48,2.48,0,0,0,2.36-1.79,2.79,2.79,0,0,0,.14-.91Zm6.83-6.4A1,1,0,0,1,70,11.41h-.18a1,1,0,0,1-.7-.29,1,1,0,0,1-.29-.7v-.07a1,1,0,0,1,.91-1.1h.14a1.05,1.05,0,0,1,1,1.07ZM69,22.48V13h1.65v9.46Z"/></clipPath><clipPath id="clip-path-42"><path class="cls-1" d="M80.53,22.12a6.08,6.08,0,0,1-2.68.58,4.48,4.48,0,0,1-4.67-4.28,5.42,5.42,0,0,1,0-.57,4.83,4.83,0,0,1,1.23-3.48,4.77,4.77,0,0,1,3.32-1.57,3.84,3.84,0,0,1,.48,0,5.49,5.49,0,0,1,2.36.49l-.39,1.33a4,4,0,0,0-2-.45,3.22,3.22,0,0,0-2.32.91,3.33,3.33,0,0,0-1,2.3v.37a3.25,3.25,0,0,0,2.9,3.54,2.54,2.54,0,0,0,.39,0,4.76,4.76,0,0,0,2.07-.48Zm3.35-4.07a3,3,0,0,0,2.6,3.29,3,3,0,0,0,.6,0,5.82,5.82,0,0,0,2.6-.49L90,22.1a7.23,7.23,0,0,1-3.11.61c-2.9,0-4.6-2-4.6-4.78s1.66-5.11,4.42-5.11c3,0,3.83,2.68,3.83,4.43a3.56,3.56,0,0,1-.08.8Zm5-1.25c0-1.07-.44-2.78-2.36-2.78a2.84,2.84,0,0,0-2.61,2.8ZM93,16c0-1.11,0-2.06-.07-3h1.48l.06,1.87h.06a2.87,2.87,0,0,1,2.61-2.09,1.77,1.77,0,0,1,.46,0v1.62a2.6,2.6,0,0,0-.56-.06,2.39,2.39,0,0,0-2.28,2.22,4,4,0,0,0-.08.78v5.08H93Zm8.74-5.69V13h2.44v1.3h-2.43v5.09c0,1.18.32,1.85,1.27,1.85a4.13,4.13,0,0,0,1-.12l.08,1.29a3.83,3.83,0,0,1-1.53.26,2.49,2.49,0,0,1-1.84-.73,3.88,3.88,0,0,1-.64-2.5V14.29H98.64V13h1.44V10.7Z"/></clipPath><clipPath id="clip-path-44"><rect class="cls-2" x="196.78" y="151.01" width="34.51" height="21.86" rx="1.84" ry="1.84"/></clipPath><clipPath id="clip-path-45"><path class="cls-2" d="M221,170.56H202.53V156.79a3.44,3.44,0,0,1,3.4-3.48h19.61v13.77C225.54,169,222.87,170.56,221,170.56Z"/></clipPath><clipPath id="clip-path-46"><path class="cls-2" d="M223.93,154.41c0,.81,0,1.65,0,2.48,0,3.34,0,6.68,0,10a2.48,2.48,0,0,1-2.37,2.36h-3.74v-5.05c1.36,0,2.72,0,4.07,0a1.34,1.34,0,0,0,1.35-1.14,1.26,1.26,0,0,0-1.21-1.26c-.23,0-.23-.06,0-.09a1.14,1.14,0,0,0,.89-1.36,1.39,1.39,0,0,0-1.46-.9h-3.64c0-.94,0-1.89,0-2.83a2.48,2.48,0,0,1,2.46-2.22Zm-3,6.25a.62.62,0,0,1-.69.75H219c0-.4,0-.83,0-1.21.49,0,1,0,1.48,0A.62.62,0,0,1,221,160.66ZM219,162.14c.54,0,1.08,0,1.62,0a.66.66,0,0,1,.19,1.19,2.61,2.61,0,0,1-1.08.1H219Z"/></clipPath><clipPath id="clip-path-47"><path class="cls-2" d="M204.13,156.76a2.49,2.49,0,0,1,2.39-2.35h3.72c0,4.18,0,8.36,0,12.55a2.49,2.49,0,0,1-2.38,2.31h-3.72v-5.22a9.61,9.61,0,0,0,3.7.22,2.11,2.11,0,0,0,1.79-1.24,9,9,0,0,0,.11-2v-1.56H207.6c0,1,0,2.06,0,3.09a1.21,1.21,0,0,1-1.28,1,8.84,8.84,0,0,1-2.2-.53C204.1,161.1,204.12,158.68,204.13,156.76Z"/></clipPath><clipPath id="clip-path-48"><path class="cls-2" d="M211,160.09c-.11,0,0-.38-.05-.54,0-1,0-1.94,0-2.92a2.5,2.5,0,0,1,2.48-2.22h3.62c0,4.18,0,8.36,0,12.55a2.48,2.48,0,0,1-2.37,2.31H211v-5.72a4.71,4.71,0,0,0,3.06.81,9.86,9.86,0,0,0,2.36-.31v-1a4.21,4.21,0,0,1-2.86.46,1.57,1.57,0,0,1-1.16-1.52,1.61,1.61,0,0,1,1.06-1.7,3.89,3.89,0,0,1,2.68.29c.17.1.35.21.28-.09v-.82a8.86,8.86,0,0,0-4.25-.09A3.08,3.08,0,0,0,211,160.09Z"/></clipPath><clipPath id="clip-path-49"><path class="cls-2" d="M26.93,159.87l.16.78.58,2.62H25.61c.21-.52,1-2.54,1-2.54S26.8,160.21,26.93,159.87ZM4.11,157.41h-4l0,.19a10.43,10.43,0,0,1,2.62,1l2.19,7.86H7.51l3.89-9.05H8.79L6.37,163.6l-.26-1.26,0-.12-.84-4A1,1,0,0,0,4.11,157.41Zm24.53,0H26.73a1.23,1.23,0,0,0-1.29.76l-3.67,8.3h2.59l.53-1.36h3.16l.3,1.35h2.29l-2-9.06Zm-13.74,0H12.43l-1.54,9.07h2.46Zm5.17-.18c-2.44,0-4.16,1.23-4.18,3,0,1.3,1.23,2,2.17,2.46s1.28.73,1.28,1.13c0,.61-.77.88-1.48.88a5.17,5.17,0,0,1-2.33-.47l-.32-.15-.34,2a7.61,7.61,0,0,0,2.75.49c2.6,0,4.28-1.22,4.3-3.1,0-1-.64-1.82-2.07-2.46-.86-.42-1.39-.7-1.39-1.13s.45-.78,1.42-.78a4.72,4.72,0,0,1,1.85.35l.22.1.33-2a6.19,6.19,0,0,0-2.21-.38ZM30.88,151a1.85,1.85,0,0,1,1.86,1.85v18.3A1.85,1.85,0,0,1,30.88,173h-31A1.85,1.85,0,0,1-2,171.15v-18.3A1.85,1.85,0,0,1-.15,151Z"/></clipPath><clipPath id="clip-path-50"><rect class="cls-2" x="157.24" y="151.01" width="34.51" height="21.86" rx="1.84" ry="1.84"/></clipPath><clipPath id="clip-path-51"><path class="cls-2" d="M184.15,162a7.82,7.82,0,0,0-8-7.73h-3.6a7.56,7.56,0,0,0-7.72,7.73,7.68,7.68,0,0,0,7.72,7.61h3.6C180.33,169.58,184.15,166.14,184.15,162Z"/></clipPath><clipPath id="clip-path-52"><path class="cls-2" d="M172.57,154.87a7,7,0,1,0,7,7A7,7,0,0,0,172.57,154.87Z"/></clipPath><clipPath id="clip-path-53"><path class="cls-2" d="M174.17,166v-8.3a4.45,4.45,0,0,1,0,8.3Zm-6-4.15a4.47,4.47,0,0,1,2.85-4.15V166A4.47,4.47,0,0,1,168.14,161.87Z"/></clipPath><clipPath id="clip-path-54"><path class="cls-2" d="M119.79,151a2.43,2.43,0,0,0-2.45,2.42v17.16a2.43,2.43,0,0,0,2.45,2.42h29.83a2.43,2.43,0,0,0,2.45-2.42V153.42a2.43,2.43,0,0,0-2.45-2.42Z"/></clipPath><clipPath id="clip-path-55"><path class="cls-2" d="M121.25,158.92v2.94h.25a1.78,1.78,0,0,0,1.25-.35,1.48,1.48,0,0,0,.51-1.12,1.46,1.46,0,0,0-.51-1.11,1.75,1.75,0,0,0-1.25-.36Zm25.82-.06v1.35h.27c.58,0,.89-.24.89-.69s-.31-.66-.88-.66Zm-.91-.7h1.35c1.06,0,1.66.48,1.66,1.32a1.2,1.2,0,0,1-1.07,1.26l1.48,1.88h-1.12l-1.27-1.79h-.12v1.79h-.91v-4.46Zm-3.2,0h2.59v.76h-1.68v1h1.62v.75h-1.62v1.21h1.68v.75H143Zm-18.34,0h.92v4.46h-.92Zm-4.28,0h1.34a2.29,2.29,0,0,1,2.52,2.23,2.23,2.23,0,0,1-.85,1.72,2.55,2.55,0,0,1-1.68.51h-1.33Zm17.69,0h1l1.25,3,1.27-3h1l-2,4.58H140Zm-10.45-.07a2.08,2.08,0,0,1,1.38.49l-.48.6a.94.94,0,0,0-.74-.36c-.39,0-.68.21-.68.49s.16.37.71.56c1,.36,1.35.68,1.35,1.39a1.49,1.49,0,0,1-1.62,1.47,1.84,1.84,0,0,1-1.62-.85l.59-.54a1.1,1.1,0,0,0,1,.59.66.66,0,0,0,.71-.63.53.53,0,0,0-.27-.46,4.9,4.9,0,0,0-.64-.25c-.86-.3-1.15-.61-1.15-1.23A1.34,1.34,0,0,1,127.58,158.08Zm4.33,0a2.46,2.46,0,0,1,1.12.27v1a1.55,1.55,0,0,0-1.15-.51,1.53,1.53,0,0,0-1.53,1.54,1.55,1.55,0,0,0,2.68,1v1a2.7,2.7,0,0,1-1.15.26,2.37,2.37,0,0,1-2.47-2.33A2.41,2.41,0,0,1,131.91,158.05Z"/></clipPath><clipPath id="clip-path-56"><path class="cls-2" d="M152.07,163.74c-1.13.8-9.62,6.5-24.31,9.26h22a2.36,2.36,0,0,0,2.31-2.32ZM135.86,158a2.31,2.31,0,1,1-2.31,2.31A2.31,2.31,0,0,1,135.86,158Z"/></clipPath><clipPath id="clip-path-57"><rect class="cls-2" x="77.63" y="151.01" width="34.6" height="21.91" rx="1.85" ry="1.85"/></clipPath><clipPath id="clip-path-58"><path class="cls-2" d="M112.23,164.18h-1.77a.66.66,0,0,0-.4.08.31.31,0,0,0-.14.29.3.3,0,0,0,.22.3,1,1,0,0,0,.37.05H111a1.54,1.54,0,0,1,1.1.33.43.43,0,0,1,.09.1Zm-3.86,1.09a1.11,1.11,0,0,1,.29.86c0,.87-.55,1.28-1.53,1.28h-1.89v-.87h1.89a.59.59,0,0,0,.39-.1.36.36,0,0,0,.12-.27.32.32,0,0,0-.12-.26.48.48,0,0,0-.35-.09c-.91,0-2,0-2-1.26a1.21,1.21,0,0,1,1.39-1.21h2v.87h-1.79a.64.64,0,0,0-.39.07.3.3,0,0,0-.14.29.29.29,0,0,0,.21.3,1,1,0,0,0,.38.05h.52A1.61,1.61,0,0,1,108.37,165.27ZM99.59,165a.9.9,0,0,1-.48.08H97.93v-.91h1.2a1,1,0,0,1,.46.08.37.37,0,0,1,.2.36A.43.43,0,0,1,99.59,165Zm.55.51a1.17,1.17,0,0,1,.48.34,1.29,1.29,0,0,1,.16.74v.81h-1v-.51a1.2,1.2,0,0,0-.16-.79c-.14-.15-.36-.18-.71-.18h-1v1.48h-1v-4.06h2.25a2.3,2.3,0,0,1,1.17.2.93.93,0,0,1,.5.9,1.12,1.12,0,0,1-.69,1.07Zm1.25-2.17h3.24v.84h-2.27v.74h2.22v.83h-2.22v.8h2.28v.84h-3.25v-4.06Zm-6.59,1.87H93.55v-1h1.27c.35,0,.59.15.59.5s-.23.54-.61.54ZM92.59,167l-1.49-1.65,1.49-1.6Zm-3.85-.47H86.35v-.8h2.13v-.83H86.35v-.74h2.44l1.06,1.19-1.11,1.18Zm7.73-1.86c0,1.13-.84,1.36-1.69,1.36H93.57v1.36h-1.9l-1.19-1.34-1.25,1.34H85.38v-4.06h3.91l1.2,1.33,1.24-1.33h3.1C95.61,163.35,96.47,163.57,96.47,164.69Zm15.76,2.17a1.51,1.51,0,0,1-1.32.52H109v-.87h1.87c.19,0,.32,0,.39-.1a.32.32,0,0,0,.12-.26.36.36,0,0,0-.12-.27.5.5,0,0,0-.34-.09c-.92,0-2,0-2-1.25,0-.59.37-1.21,1.39-1.21h1.94v-.81h-1.8a2,2,0,0,0-1.22.33v-.33h-2.66a1.86,1.86,0,0,0-1.16.33v-.33h-4.76v.33a2.56,2.56,0,0,0-1.31-.33H96.18v.33a2.28,2.28,0,0,0-1.37-.33H91.3l-.8.87-.75-.87H84.5v5.66h5.15l.83-.88.78.88h3.17v-1.33h.31a3.2,3.2,0,0,0,1.35-.2v1.53h2.62V166.7h.13c.16,0,.17,0,.17.17v1.31H107a2.29,2.29,0,0,0,1.32-.36v.36h2.52a3.35,3.35,0,0,0,1.43-.26v-1Zm-8.39-8.21-.68-1.62-.66,1.62Zm5.91,1.74h-1.38l-1.84-3v3h-2l-.38-.9h-2l-.37.9h-1.14a1.71,1.71,0,0,1-1.93-2,2.17,2.17,0,0,1,.53-1.59,2,2,0,0,1,1.47-.47h1v.87h-.93a.91.91,0,0,0-.74.24,1.31,1.31,0,0,0-.28.92,1.4,1.4,0,0,0,.26.95.94.94,0,0,0,.68.21h.44l1.37-3.19h1.46l1.64,3.83v-3.83H107l1.71,2.82v-2.82h1v4Zm-11.52,0h-1v-4h1v4ZM95.44,158a.81.81,0,0,1-.48.09H93.78v-.9H95a1.14,1.14,0,0,1,.47.07.39.39,0,0,1,.2.36A.41.41,0,0,1,95.44,158Zm1.23-.6a1.14,1.14,0,0,1-.69,1.08,1.1,1.1,0,0,1,.48.34,1.18,1.18,0,0,1,.17.75v.79h-1v-.51a1.27,1.27,0,0,0-.15-.79,1,1,0,0,0-.71-.17h-1v1.47h-1v-4H95a2.22,2.22,0,0,1,1.18.2A1,1,0,0,1,96.67,157.43Zm-4.58,3H88.84v-4h3.25v.85H89.81v.73H92v.83H89.81v.81h2.28Zm-11.33-1.74L80.09,157l-.66,1.62Zm7.36,1.74h-1v-3.17l-1.41,3.17h-.85l-1.42-3.17v3.17h-2l-.37-.9h-2l-.37.9H77.63l1.74-4h1.45l1.65,3.84v-3.84h1.59l1.27,2.75,1.17-2.75h1.62Zm-10.49.82h1.66l.38-.9h.84l.37.9h3.27v-.69l.29.69h1.7l.29-.7v.7h8.13v-1.48h.16c.11,0,.14,0,.14.2v1.28h4.21v-.34a3.31,3.31,0,0,0,1.56.34h1.76l.38-.9h.84l.37.9h3.41v-.85l.52.85h2.73v-5.65h-2.71v.67l-.37-.67h-2.78v.67l-.35-.67h-3.74a3.37,3.37,0,0,0-1.62.33v-.33H96.47v.33a1.61,1.61,0,0,0-1.1-.33H85.93L85.3,157l-.65-1.46h-3v.67l-.33-.67H78.81l-1.18,2.68Z"/></clipPath><clipPath id="clip-path-59"><rect class="cls-2" x="37.9" y="151" width="34.6" height="21.91" rx="1.85" ry="1.85"/></clipPath><clipPath id="clip-path-60"><path class="cls-2" d="M57.92,161.87a8.28,8.28,0,1,1-8.28-8.28,8.28,8.28,0,0,1,8.28,8.28"/></clipPath><clipPath id="clip-path-61"><path class="cls-2" d="M60.76,153.59a8.22,8.22,0,0,0-6.4,3H56a8.72,8.72,0,0,1,.63.87H53.73a8.4,8.4,0,0,0-.48.88h3.89c.13.29.25.58.35.88H52.9a8.6,8.6,0,0,0-.24.87h5.07a8.29,8.29,0,0,1-.24,4.39H52.9a8.31,8.31,0,0,0,.35.87h3.89a6.78,6.78,0,0,1-.48.88H53.73a7.82,7.82,0,0,0,.63.88H56a8.57,8.57,0,0,1-.83.88,8.28,8.28,0,1,0,5.56-14.42"/></clipPath><clipPath id="clip-path-62"><path class="cls-2" d="M54.17,161.58c-.28,0-.48.22-.57.61h1c0-.07.09-.61-.41-.61Zm12,.11c-.41,0-.7.47-.7,1.14,0,.45.16.68.46.68s.71-.48.71-1.15C66.66,161.92,66.5,161.69,66.19,161.69ZM47.5,162.76c-.51,0-.76.18-.76.52a.31.31,0,0,0,.32.35c.36,0,.63-.35.64-.85Zm14.16,0c-.5,0-.76.18-.76.52a.31.31,0,0,0,.32.35c.37,0,.63-.35.64-.85ZM43.88,160.1l.08,2.35.79-2.36h1.44l-.7,4.21h-.9l.52-3.23L44,164.3h-.62l-.07-3.21-.54,3.21h-.85l.71-4.2Zm17.8.7c.77,0,1.18.35,1.18,1a5.26,5.26,0,0,1-.07.67c-.08.5-.25,1.56-.27,1.82h-.75l0-.36a1.12,1.12,0,0,1-.94.42.85.85,0,0,1-.82-.94c0-.83.58-1.31,1.58-1.31a2.36,2.36,0,0,1,.36,0,.78.78,0,0,0,0-.22c0-.23-.16-.31-.58-.31a3.09,3.09,0,0,0-1,.15l.13-.76a3.31,3.31,0,0,1,1.07-.19Zm-14.16,0c.77,0,1.18.35,1.18,1a5.26,5.26,0,0,1-.07.67c-.08.5-.25,1.56-.27,1.82h-.75l0-.36a1.13,1.13,0,0,1-.94.42.85.85,0,0,1-.82-.94c0-.83.58-1.31,1.58-1.31a2.36,2.36,0,0,1,.36,0,.78.78,0,0,0,0-.22c0-.23-.16-.31-.58-.31a3.09,3.09,0,0,0-1,.15l.12-.76A3.41,3.41,0,0,1,47.52,160.8Zm11.91-1a2.75,2.75,0,0,1,1,.36l-.15.91a1.73,1.73,0,0,0-.81-.23c-.67,0-1.14.65-1.14,1.58,0,.63.32,1,.84,1a1.75,1.75,0,0,0,.77-.22l-.16,1a3.11,3.11,0,0,1-.8.13c-1,0-1.57-.7-1.57-1.82a4,4,0,0,1,.07-.7c-.32,0-.48.06-.53.25l-.34.18c-.05.43-.13,1-.28,2h-.9l0-.23c.16-1.06.36-2.13.47-3.19h.83c0,.12,0,.23,0,.34l.23-.05c.26-.35.48-.7,1-.52A1.79,1.79,0,0,1,59.43,159.85Zm8.53.25-.68,4.2h-.85l0-.32a1.08,1.08,0,0,1-.83.38c-.65,0-1.08-.57-1.08-1.42a3.09,3.09,0,0,1,.21-1.11c-.31,0-.46.23-.77.5-.07.52-.16,1.18-.28,2h-.9l0-.23c.16-1.06.36-2.13.47-3.19h.83c0,.06,0,.23,0,.51a7.44,7.44,0,0,0,.76.21,1.38,1.38,0,0,1,1.14-.85,1.14,1.14,0,0,1,.86.56l.2-1.21Zm-17.71.7a5.64,5.64,0,0,1,.79.07l-.13.79a4.6,4.6,0,0,0-.64,0c-.3,0-.45.1-.45.28s0,.2.43.37a.93.93,0,0,1,.63,1c0,.78-.44,1.15-1.39,1.15a3.83,3.83,0,0,1-.93-.11l.12-.79a2.38,2.38,0,0,0,.81.14c.35,0,.51-.1.51-.31s0-.2-.42-.38a1,1,0,0,1-.68-.95C48.89,161.33,49.24,160.8,50.25,160.8Zm4,0A1.15,1.15,0,0,1,55.43,162a4.12,4.12,0,0,1-.11.84H53.54c-.06.5.25.7.77.7a2.1,2.1,0,0,0,.93-.21l-.15.85a3.14,3.14,0,0,1-.91.14,1.37,1.37,0,0,1-1.53-1.53C52.65,161.66,53.32,160.8,54.22,160.8Zm-1.82-.44-.1.52h.54l-.12.82h-.54c-.11.65-.26,1.46-.26,1.57s.1.25.31.25l.24,0-.12.75a2,2,0,0,1-.64.12.66.66,0,0,1-.71-.75,6.59,6.59,0,0,1,.12-.92c.05-.32.39-2.33.39-2.33Z"/></clipPath><clipPath id="clip-path-63"><path class="cls-2" d="M54.43,161.33c-.28,0-.48.22-.57.61h1c0-.07.09-.61-.42-.61Zm12,.11c-.41,0-.7.47-.7,1.14,0,.45.15.68.46.68s.71-.48.71-1.15C66.92,161.67,66.76,161.44,66.45,161.44Zm-4.53,1.07c-.5,0-.76.18-.76.52a.31.31,0,0,0,.32.35c.37,0,.63-.35.65-.85l-.21,0Zm-14.16,0c-.51,0-.77.18-.77.52a.32.32,0,0,0,.33.35c.36,0,.63-.35.64-.85l-.2,0Zm-3.62-2.66,0,2.6.87-2.6h1.39l-.69,4.2h-.9l.52-3.23-1.15,3.23H43.6l-.07-3.21L43,164.05h-.84l.71-4.2Zm13.56.75h.12a3.52,3.52,0,0,0-.34,1c-.5,0-.58.36-.9,2.45h-.9l0-.23c.16-1.06.36-2.13.47-3.19H57a3.15,3.15,0,0,1,0,.52c.28-.4.49-.62.86-.54Zm7.4,0h.12a3.52,3.52,0,0,0-.34,1c-.5,0-.58.36-.9,2.45h-.9l0-.23c.16-1.06.36-2.13.47-3.19h.82a3.15,3.15,0,0,1,0,.52c.28-.4.49-.62.86-.54Zm-3.16,0c.77,0,1.18.34,1.18,1a5.26,5.26,0,0,1-.07.67c-.08.5-.25,1.56-.27,1.82H62l0-.36a1.13,1.13,0,0,1-.94.42.84.84,0,0,1-.82-.94c0-.83.58-1.31,1.58-1.31l.36,0a.78.78,0,0,0,0-.22c0-.23-.16-.31-.58-.31a3.09,3.09,0,0,0-.95.15l.12-.76A3.37,3.37,0,0,1,61.94,160.56Zm-14.16,0c.77,0,1.18.34,1.18,1a5.26,5.26,0,0,1-.07.67c-.08.5-.25,1.56-.27,1.82h-.75l0-.36a1.13,1.13,0,0,1-.94.42.84.84,0,0,1-.82-.94c0-.83.58-1.31,1.57-1.31l.37,0a1.43,1.43,0,0,0,0-.22c0-.23-.16-.31-.58-.31a3,3,0,0,0-1,.15l.12-.76A3.37,3.37,0,0,1,47.78,160.56Zm2.73,0a5.56,5.56,0,0,1,.79.06l-.13.79c-.21,0-.43,0-.65,0s-.44.1-.44.28.05.2.42.37a.94.94,0,0,1,.64,1c0,.78-.44,1.15-1.39,1.15a3.83,3.83,0,0,1-.93-.11l.12-.78a2.63,2.63,0,0,0,.81.13c.35,0,.51-.1.51-.31s-.06-.2-.42-.38a1,1,0,0,1-.68-.95c0-.63.34-1.15,1.35-1.15Zm17.71-.71-.68,4.2h-.85l0-.32a1.08,1.08,0,0,1-.83.38c-.65,0-1.09-.57-1.09-1.42,0-1.14.67-2.1,1.47-2.1a1,1,0,0,1,.86.47l.19-1.21Zm-13.74.71a1.14,1.14,0,0,1,1.2,1.23,4,4,0,0,1-.1.84H53.8c-.07.5.25.7.77.7a2.1,2.1,0,0,0,.93-.21l-.15.85a3.16,3.16,0,0,1-.92.14,1.36,1.36,0,0,1-1.52-1.53C52.91,161.41,53.58,160.56,54.48,160.56Zm-1.82-.45-.1.52H53l-.13.82h-.46c-.1.65-.25,1.46-.25,1.57s.1.25.31.25l.24,0-.12.76a2.26,2.26,0,0,1-.64.11.66.66,0,0,1-.71-.75,6.32,6.32,0,0,1,.12-.91c0-.32.39-2.34.39-2.34Zm7-.37a3.1,3.1,0,0,1,1,.22l-.14.91a1.74,1.74,0,0,0-.81-.22c-.67,0-1.14.64-1.14,1.57,0,.64.32,1,.84,1a1.79,1.79,0,0,0,.76-.21L60,164a3.11,3.11,0,0,1-.8.13c-1,0-1.57-.7-1.57-1.82C57.66,160.79,58.5,159.74,59.69,159.74Z"/></clipPath></defs><title>未标题-1</title><g class="cls-3"><g class="cls-4"><rect class="cls-5" x="-5" y="-5" width="120.33" height="88.98"/></g></g><g class="cls-6"><g class="cls-4"><rect class="cls-7" x="9.44" y="44.85" width="105.83" height="39.08"/></g></g><g class="cls-8"><g class="cls-4"><g class="cls-9"><g class="cls-10"><g class="cls-11"><g class="cls-12"><rect class="cls-13" x="-5" y="47.11" width="87.79" height="36.85"/></g></g></g></g></g></g><g class="cls-14"><g class="cls-4"><rect class="cls-15" x="9.74" y="52.05" width="21.9" height="25.78"/></g></g><g class="cls-16"><g class="cls-4"><rect class="cls-17" x="1.16" y="4.68" width="42.54" height="43.46"/></g></g><g class="cls-18"><g class="cls-4"><rect class="cls-19" x="51.82" y="25.13" width="16.41" height="21.44"/></g></g><g class="cls-20"><g class="cls-4"><rect class="cls-19" x="51.68" y="24.98" width="26.89" height="21.74"/></g></g><g class="cls-21"><g class="cls-4"><rect class="cls-19" x="59.06" y="24.96" width="31.42" height="21.8"/></g></g><g class="cls-22"><g class="cls-4"><rect class="cls-19" x="73.48" y="24.81" width="25.71" height="22.12"/></g></g><g class="cls-23"><g class="cls-4"><rect class="cls-19" x="82.17" y="24.81" width="25.7" height="22.12"/></g></g><g class="cls-24"><g class="cls-4"><rect class="cls-19" x="91.43" y="24.98" width="16.59" height="21.74"/></g></g><g class="cls-25"><g class="cls-4"><rect class="cls-15" x="29.85" y="53.22" width="18.74" height="23.67"/></g></g><g class="cls-26"><g class="cls-4"><rect class="cls-15" x="29.65" y="53.09" width="29.09" height="23.99"/></g></g><g class="cls-27"><g class="cls-4"><rect class="cls-15" x="39.39" y="53.26" width="30.57" height="23.61"/></g></g><g class="cls-28"><g class="cls-4"><rect class="cls-15" x="49.24" y="53.06" width="32.6" height="24.02"/></g></g><g class="cls-29"><g class="cls-4"><rect class="cls-15" x="60.83" y="53.27" width="31.16" height="23.82"/></g></g><g class="cls-30"><g class="cls-4"><rect class="cls-15" x="72.39" y="53.21" width="29.8" height="23.66"/></g></g><g class="cls-31"><g class="cls-4"><rect class="cls-15" x="82.84" y="53.27" width="19.59" height="23.6"/></g></g><g class="cls-32"><g class="cls-4"><rect class="cls-33" x="35.86" y="3.58" width="40.01" height="28"/></g></g><g class="cls-34"><g class="cls-4"><rect class="cls-17" x="68.17" y="5.28" width="41.01" height="22.44"/></g></g></svg>