<svg id="图层_1" data-name="图层 1" xmlns="http://www.w3.org/2000/svg" xmlns:xlink="http://www.w3.org/1999/xlink" viewBox="0 0 54 54"><defs><style>.cls-1{fill:none;clip-rule:evenodd;}.cls-2{clip-path:url(#clip-path);}.cls-3{clip-path:url(#clip-path-2);}.cls-4{clip-path:url(#clip-path-3);}.cls-5{clip-path:url(#clip-path-4);}.cls-6{clip-path:url(#clip-path-5);}.cls-7{clip-path:url(#clip-path-6);}.cls-8{clip-path:url(#clip-path-7);}.cls-9{clip-path:url(#clip-path-8);}.cls-10{clip-path:url(#clip-path-9);}.cls-11{clip-path:url(#clip-path-10);}.cls-12{clip-path:url(#clip-path-11);}.cls-13{clip-path:url(#clip-path-12);}.cls-14{clip-path:url(#clip-path-13);}.cls-15{fill:#e54d38;}.cls-16{fill:#fff;}</style><clipPath id="clip-path"><path class="cls-1" d="M-32.15-97.15a5.92,5.92,0,0,1-5.82,6,5.92,5.92,0,0,1-5.82-6,5.91,5.91,0,0,1,5.82-6,5.91,5.91,0,0,1,5.82,6"/></clipPath><clipPath id="clip-path-2"><path class="cls-1" d="M-35.21-98.94a2.76,2.76,0,0,0-2.56-2.19,3,3,0,0,0-2.3.82c-.23.22-.71.76-.68,1s.29.32.45.43l.12.08.13.12c.16.14.37.33.52.33s.23-.16.32-.29a1,1,0,0,1,.11-.15,2,2,0,0,1,.51-.44,1.21,1.21,0,0,1,.56-.13.89.89,0,0,1,1,.71c0,.47-.37.67-.71.85a1.87,1.87,0,0,0-.28.16,1.71,1.71,0,0,0-.9,1.93c.32,0,1.13,0,1.69,0a.48.48,0,0,0,.15-.28.77.77,0,0,1,0-.19,2.06,2.06,0,0,1,.83-.74,2.39,2.39,0,0,0,.67-.52,2.05,2.05,0,0,0,.35-1.49"/></clipPath><clipPath id="clip-path-3"><path class="cls-1" d="M-37.3-95.11c-.26,0-.57,0-.87,0a3.18,3.18,0,0,0-.78.07,5.11,5.11,0,0,0,0,1.44c0,.13,0,.26,0,.37a2.63,2.63,0,0,0,.79.09,9.43,9.43,0,0,0,1-.07,6.3,6.3,0,0,0-.07-1.89Z"/></clipPath><clipPath id="clip-path-4"><path class="cls-1" d="M1167.85-1680.15a5.92,5.92,0,0,1-5.82,6,5.92,5.92,0,0,1-5.82-6,5.91,5.91,0,0,1,5.82-6,5.91,5.91,0,0,1,5.82,6"/></clipPath><clipPath id="clip-path-5"><path class="cls-1" d="M1164.79-1681.94a2.76,2.76,0,0,0-2.56-2.19,3,3,0,0,0-2.3.82c-.23.22-.71.76-.68,1s.29.32.45.43l.12.08.13.12c.16.14.37.33.52.33s.23-.16.32-.29a1,1,0,0,1,.11-.15,2,2,0,0,1,.51-.44,1.21,1.21,0,0,1,.56-.13.89.89,0,0,1,1,.71c0,.47-.37.67-.71.85a1.87,1.87,0,0,0-.28.16,1.71,1.71,0,0,0-.9,1.93c.32,0,1.13,0,1.69,0a.48.48,0,0,0,.15-.28.77.77,0,0,1,0-.19,2.06,2.06,0,0,1,.83-.74,2.39,2.39,0,0,0,.67-.52,2.05,2.05,0,0,0,.35-1.49"/></clipPath><clipPath id="clip-path-6"><path class="cls-1" d="M1162.7-1678.11c-.26,0-.57,0-.87,0a3.18,3.18,0,0,0-.78.07,5.11,5.11,0,0,0,0,1.44c0,.13,0,.26,0,.37a2.63,2.63,0,0,0,.79.09,9.43,9.43,0,0,0,1-.07,6.3,6.3,0,0,0-.07-1.89Z"/></clipPath><clipPath id="clip-path-7"><path class="cls-1" d="M533.85-1250.15a5.92,5.92,0,0,1-5.82,6,5.92,5.92,0,0,1-5.82-6,5.91,5.91,0,0,1,5.82-6,5.91,5.91,0,0,1,5.82,6"/></clipPath><clipPath id="clip-path-8"><path class="cls-1" d="M530.79-1251.94a2.76,2.76,0,0,0-2.56-2.19,3,3,0,0,0-2.3.82c-.23.22-.71.76-.68,1s.29.32.45.43l.12.08.13.12c.16.14.37.33.52.33s.23-.16.32-.29a1,1,0,0,1,.11-.15,2,2,0,0,1,.51-.44,1.21,1.21,0,0,1,.56-.13.89.89,0,0,1,1,.71c0,.47-.37.67-.71.85a1.87,1.87,0,0,0-.28.16,1.71,1.71,0,0,0-.9,1.93c.32,0,1.13,0,1.69,0a.48.48,0,0,0,.15-.28.77.77,0,0,1,.05-.19,2.06,2.06,0,0,1,.83-.74,2.39,2.39,0,0,0,.67-.52,2.05,2.05,0,0,0,.35-1.49"/></clipPath><clipPath id="clip-path-9"><path class="cls-1" d="M528.7-1248.11c-.26,0-.57,0-.87,0a3.18,3.18,0,0,0-.78.07,5.11,5.11,0,0,0,0,1.44c0,.13,0,.26,0,.37a2.63,2.63,0,0,0,.79.09,9.43,9.43,0,0,0,1-.07,6.3,6.3,0,0,0-.07-1.89Z"/></clipPath><clipPath id="clip-path-10"><path class="cls-1" d="M-29.15-50.15a5.92,5.92,0,0,1-5.82,6,5.92,5.92,0,0,1-5.82-6,5.91,5.91,0,0,1,5.82-6,5.91,5.91,0,0,1,5.82,6"/></clipPath><clipPath id="clip-path-11"><path class="cls-1" d="M-32.21-51.94a2.76,2.76,0,0,0-2.56-2.19,3,3,0,0,0-2.3.82c-.23.22-.71.76-.68,1s.29.32.45.43l.12.08.13.12c.16.14.37.33.52.33s.23-.16.32-.29a1,1,0,0,1,.11-.15,2,2,0,0,1,.51-.44,1.21,1.21,0,0,1,.56-.13.89.89,0,0,1,1,.71c0,.47-.37.67-.71.85a1.87,1.87,0,0,0-.28.16,1.71,1.71,0,0,0-.9,1.93c.32,0,1.13,0,1.69,0a.48.48,0,0,0,.15-.28.77.77,0,0,1,0-.19,2.06,2.06,0,0,1,.83-.74,2.39,2.39,0,0,0,.67-.52,2.05,2.05,0,0,0,.35-1.49"/></clipPath><clipPath id="clip-path-12"><path class="cls-1" d="M-34.3-48.11c-.26,0-.57,0-.87,0a3.18,3.18,0,0,0-.78.07,5.11,5.11,0,0,0,0,1.44c0,.13,0,.26,0,.37a2.63,2.63,0,0,0,.79.09,9.43,9.43,0,0,0,1-.07,6.3,6.3,0,0,0-.07-1.89Z"/></clipPath><clipPath id="clip-path-13"><path class="cls-1" d="M343.7-1236.11c-.26,0-.57,0-.87,0a3.18,3.18,0,0,0-.78.07,5.11,5.11,0,0,0,0,1.44c0,.13,0,.26,0,.37a2.63,2.63,0,0,0,.79.09,9.43,9.43,0,0,0,1-.07,6.3,6.3,0,0,0-.07-1.89Z"/></clipPath></defs><title>pc-新版各个界面-传iconfont</title><circle class="cls-15" cx="27" cy="27" r="27"/><path class="cls-16" d="M30.87,14.66l.7.48a12.48,12.48,0,0,1-4.4,3.47c0,.06,0,.11,0,.16V19l.73.29a4.07,4.07,0,0,0,1.5.24,2.52,2.52,0,0,0,2.13-1.25,7.9,7.9,0,0,0,.85-1.87c0-.11.07-.22.11-.35l.8.11v1.07h0L34,15.71l.8.11c0,.25.06.5.1.75.08.6.17,1.22.27,1.82a1.54,1.54,0,0,0,.17.51.4.4,0,0,0,.56.22,1.89,1.89,0,0,0,.56-.35,4.81,4.81,0,0,0,1.35-2.39c.06-.28.14-.57.23-.88a15.41,15.41,0,0,0,4,.27l.41-4.27.85.08C43.15,13,43,14.3,42.89,15.7a13.83,13.83,0,0,0,4.31-1,.52.52,0,0,1,.07.12c.1.2.19.4.3.64a15.16,15.16,0,0,1-4.68,1.11.58.58,0,0,0,0,.18,23.56,23.56,0,0,0,.06,2.91c0,.36.13.7.2,1.05a1.3,1.3,0,0,0,.14.32.6.6,0,0,0,.79.31,1.71,1.71,0,0,0,.67-.43,4.93,4.93,0,0,0,1.14-1.8c0-.06,0-.13.08-.2l0,0,.76.19a1.37,1.37,0,0,1,0,.23,5.75,5.75,0,0,1-1.42,2.24,2.36,2.36,0,0,1-1.12.65,1.42,1.42,0,0,1-1.62-.7,3.77,3.77,0,0,1-.43-1.42,20.47,20.47,0,0,1-.1-3.13v-.29H40.18l.13.17a3.52,3.52,0,0,1,.86,2.34,2.29,2.29,0,0,1-.24,1,1.62,1.62,0,0,1-2.62.29,2.7,2.7,0,0,1-.6-1.32c0-.12-.05-.24-.08-.41l-.19.22a2.9,2.9,0,0,1-1,.86,2.13,2.13,0,0,1-.61.17,1.16,1.16,0,0,1-1.17-.59,3.23,3.23,0,0,1-.4-1.24,2.45,2.45,0,0,0-.14-.58l-1.19,2.7-.8-.22.17-1.31c-.07.07-.11.09-.14.13a3.45,3.45,0,0,1-3.44,1.43A5.08,5.08,0,0,1,27.35,20l-.26-.08v2.19l-.42,0h-.43c0-.89,0-1.76.05-2.64l-.6-.45a.21.21,0,0,1-.1-.29c.05-.18.09-.36.14-.55l.6-.17c.1-2,.17-4,.35-6.08l.84.08c-.15,1.87-.25,3.73-.32,5.64A12.37,12.37,0,0,0,30.87,14.66Zm7.76,1.9a1.5,1.5,0,0,0-.06.22,5.43,5.43,0,0,0-.09.69,5.25,5.25,0,0,0,.09,1.63,1.6,1.6,0,0,0,.42.84.74.74,0,0,0,1.23-.27,1.91,1.91,0,0,0,.1-.71A3,3,0,0,0,38.63,16.56Z"/><path class="cls-16" d="M19.92,19.89l0,.2a.9.9,0,0,0,1.39.65,1.73,1.73,0,0,0,.67-.59,4.11,4.11,0,0,0,.58-1.26,2.46,2.46,0,0,1,.08-.27l.79.16c0,.13,0,.23-.06.33a4.23,4.23,0,0,1-.92,1.8,2.19,2.19,0,0,1-1.72.79,1.53,1.53,0,0,1-1.48-1,3.93,3.93,0,0,1-.19-.55c-.11,0-.22,0-.34,0a7.48,7.48,0,0,1-.82,0,1.74,1.74,0,0,1-1.45-1.09,3.52,3.52,0,0,1-.27-1.06l-.06-.61h0c-.63.9-1.27,1.79-1.91,2.71l-.74-.2c-.11-.89-.06-1.79-.1-2.7l-.09.17a14.52,14.52,0,0,1-1.86,3,4.41,4.41,0,0,1-1,.93,2.4,2.4,0,0,1-.64.32.72.72,0,0,1-.92-.44,2.44,2.44,0,0,1-.22-1.12c0-.8,0-1.59.07-2.38,0-.31,0-.61.08-.91v-.29l-2.33.2-.06-.82,2.51-.24.37-3.18.81.07c-.06,1-.22,2-.32,3,.66,0,1.3-.15,2-.21l.11.8c-.72.14-1.45.18-2.19.29,0,.38-.08.74-.1,1.11,0,.75-.08,1.51-.1,2.27a8,8,0,0,0,.07.83,1.28,1.28,0,0,0,.07.21.88.88,0,0,0,.4-.22,6.63,6.63,0,0,0,1.09-1.21,13.12,13.12,0,0,0,2.09-4.28c0-.17.1-.34.16-.51a12.08,12.08,0,0,0,.44-2.31c.08-.53.21-1,.33-1.57a.47.47,0,0,1,.32-.36.39.39,0,0,1,.57.33,2.33,2.33,0,0,1,0,.53c-.09.54-.17,1.08-.31,1.61a10.38,10.38,0,0,0-.34,2.08c-.06,1.13-.11,2.26-.16,3.39a1.13,1.13,0,0,0,0,.26h.06l2-2.86.73.23v1a5.52,5.52,0,0,0,.13,1.46,2.47,2.47,0,0,0,.11.36,1,1,0,0,0,.94.62,2.61,2.61,0,0,0,.84-.09c.05-.3.08-.6.15-.88a4,4,0,0,1,1.1-2.05,2.44,2.44,0,0,1,.64-.42.83.83,0,0,1,1.21.81,2.58,2.58,0,0,1-.16.87,4,4,0,0,1-1.86,2.17Zm1.34-3.17A2.79,2.79,0,0,0,20,18.86,2.79,2.79,0,0,0,21.26,16.72Z"/><path class="cls-16" d="M12.1,35.19,13,31.84H14l-1.35,4.54H11.5l-.93-3.09h-.06l0,.07-.9,3,0,0H8.45L7.1,31.88a2.47,2.47,0,0,1,1,0L9,35.19a14,14,0,0,0,.55-1.66c.16-.56.33-1.12.49-1.69h1l1,3.36Z"/><path class="cls-16" d="M12.43,29.7V25.16a1.52,1.52,0,0,1,.21,0c.57,0,1.14,0,1.71,0a3.09,3.09,0,0,1,.9.15A1.1,1.1,0,0,1,16,26.64c-.05.28-.18.44-.54.73l.18.13a1.17,1.17,0,0,1,0,1.93,2.39,2.39,0,0,1-.65.23,2.89,2.89,0,0,1-.66.05H12.71Zm.93-.82h1.25a.41.41,0,0,0,.16,0,.47.47,0,0,0,.39-.55.44.44,0,0,0-.45-.45c-.43,0-.87,0-1.31,0,0,0,0,0,0,0Zm0-1.88h.91a2.45,2.45,0,0,0,.38,0,.48.48,0,0,0,.42-.5.46.46,0,0,0-.43-.47,9,9,0,0,0-1.28,0Z"/><path class="cls-16" d="M36.89,36.4h-.73c-.13,0-.18-.1-.24-.19l-1.85-2.43-.25-.33-.06,0v2.91h-.92V31.83c.27,0,.54,0,.8,0,.07,0,.14.09.19.16l1.59,2.09a5.65,5.65,0,0,0,.57.67c0-.24,0-.47,0-.7V31.84h.88C36.94,32,37,36,36.89,36.4Z"/><path class="cls-16" d="M19.73,36.37V31.85l.21,0h1.74a2.56,2.56,0,0,1,.94.17,2.3,2.3,0,0,1-.85,4.39c-.63,0-1.27,0-1.9,0Zm.93-.85a6.25,6.25,0,0,0,1.37,0,1.18,1.18,0,0,0,.94-1,1.82,1.82,0,0,0,0-.77,1.21,1.21,0,0,0-1.07-1c-.34,0-.69,0-1,0l-.21,0Z"/><path class="cls-16" d="M25.05,36.4V31.85l.19,0c.59,0,1.18,0,1.76,0a3.28,3.28,0,0,1,.84.14,2,2,0,0,1,1.45,1.87,3.12,3.12,0,0,1-.07,1,2.07,2.07,0,0,1-1.86,1.56c-.61,0-1.22,0-1.82,0Zm.93-.88c.41,0,.79,0,1.17,0a1.21,1.21,0,0,0,1.17-1.12c0-.11,0-.22,0-.32A1.28,1.28,0,0,0,27,32.69h-.83l-.18,0Z"/><path class="cls-16" d="M35.13,29.8a2.27,2.27,0,0,1-2.32-1.74,2.32,2.32,0,0,1,.74-2.47,2.5,2.5,0,0,1,3.7.65,2.39,2.39,0,0,1-1.62,3.51C35.47,29.78,35.3,29.78,35.13,29.8Zm1.43-2.39a1.44,1.44,0,1,0-2.87,0,1.44,1.44,0,1,0,2.87,0Z"/><path class="cls-16" d="M41.64,34.62H40.51v-.75h2.07a1.47,1.47,0,0,1,0,.66,2.16,2.16,0,0,1-2.19,1.95,2.47,2.47,0,0,1-1.28-.33A2.26,2.26,0,0,1,38,33.9a2.3,2.3,0,0,1,2.52-2.16,2.39,2.39,0,0,1,1.19.35,4.23,4.23,0,0,1,.42.32l-.66.65-.1-.07a1.45,1.45,0,0,0-1.63-.23A1.39,1.39,0,0,0,39,34.14a1.43,1.43,0,0,0,1.88,1.42A1.11,1.11,0,0,0,41.64,34.62Z"/><path class="cls-16" d="M17.34,25.15H20.7V26H18.27c0,.34,0,.65,0,1h2.34v.84H18.27v1h2.45a4.85,4.85,0,0,1,0,.85H17.34Z"/><path class="cls-16" d="M15,36.36V31.84h3.37v.83H15.93v1c.77,0,1.54,0,2.32,0v.83H15.93v1H18.4v.8A32,32,0,0,1,15,36.36Z"/><path class="cls-16" d="M21.7,29.2l.48-.74.22.13a2.33,2.33,0,0,0,1.46.33,1.8,1.8,0,0,0,.43-.14.4.4,0,0,0,.23-.42.36.36,0,0,0-.28-.32c-.26-.08-.53-.13-.8-.19a7.16,7.16,0,0,1-.7-.17,1.12,1.12,0,0,1-.84-.95,1.31,1.31,0,0,1,.56-1.33,2,2,0,0,1,.92-.33,3.22,3.22,0,0,1,2,.42l.08.08-.42.72-.22-.1a2.12,2.12,0,0,0-1.18-.27,1.31,1.31,0,0,0-.55.17.37.37,0,0,0,.06.7,6.37,6.37,0,0,0,.75.2,5.51,5.51,0,0,1,.8.2,1.08,1.08,0,0,1,.8.91A1.32,1.32,0,0,1,25,29.4a1.93,1.93,0,0,1-1,.37,3.41,3.41,0,0,1-1.78-.27A5,5,0,0,1,21.7,29.2Z"/><path class="cls-16" d="M43.2,35.88l.48-.73.2.11a2.27,2.27,0,0,0,1.43.35,1.28,1.28,0,0,0,.5-.16.38.38,0,0,0-.05-.71,5.22,5.22,0,0,0-.78-.19c-.24-.06-.49-.09-.73-.17a1.12,1.12,0,0,1-.85-1A1.31,1.31,0,0,1,44,32.09a2,2,0,0,1,.87-.32,3.21,3.21,0,0,1,2,.38l.13.1-.42.73-.25-.12a2.13,2.13,0,0,0-1.21-.24,1.33,1.33,0,0,0-.48.14.42.42,0,0,0-.23.4.37.37,0,0,0,.28.33c.27.08.54.13.81.2a6.17,6.17,0,0,1,.74.19,1.09,1.09,0,0,1,.81,1,1.3,1.3,0,0,1-.55,1.26,1.82,1.82,0,0,1-.73.31,3.3,3.3,0,0,1-2.14-.3C43.46,36.06,43.34,36,43.2,35.88Z"/><path class="cls-16" d="M39.65,29.7h-.91V25.15h3.33V26H39.66v1h2.26v.85H39.65Z"/><path class="cls-16" d="M27.69,26H26.3v-.85H30A6,6,0,0,1,30,26h-1.4v3.7H27.7c0-.24,0-.49,0-.73V26Z"/><path class="cls-16" d="M30.53,31.84h.87v4.54h-.85C30.49,36.19,30.47,32.25,30.53,31.84Z"/><path class="cls-16" d="M26.73,44a2.08,2.08,0,0,1-.23,1,1.41,1.41,0,0,1-1.32.81,1.38,1.38,0,0,1-1.32-.84,2.29,2.29,0,0,1,0-2,1.47,1.47,0,0,1,2.65,0A2.07,2.07,0,0,1,26.73,44ZM26,44a1.5,1.5,0,0,0-.18-.71.71.71,0,0,0-1.27,0,1.7,1.7,0,0,0,0,1.55.68.68,0,0,0,.66.41.73.73,0,0,0,.64-.42A1.88,1.88,0,0,0,26,44Z"/><path class="cls-16" d="M21,43.22l-.41-.43a1.28,1.28,0,0,1,.86-.57,1.56,1.56,0,0,1,.53,0,1.13,1.13,0,0,1,.92,1.67,2,2,0,0,1-.32.45c-.25.28-.51.53-.78.82a2.42,2.42,0,0,0,.65,0h.65v.64H20.74a3.3,3.3,0,0,1,0-.45.42.42,0,0,1,.13-.22l1.05-1.08a3,3,0,0,0,.27-.33.56.56,0,0,0-.73-.82A5.31,5.31,0,0,0,21,43.22Z"/><path class="cls-16" d="M33.4,44a2.19,2.19,0,0,1-.24,1,1.4,1.4,0,0,1-1.31.81,1.39,1.39,0,0,1-1.33-.84,2.32,2.32,0,0,1,0-2,1.38,1.38,0,0,1,1.32-.83,1.43,1.43,0,0,1,1.33.83A2.19,2.19,0,0,1,33.4,44ZM32.66,44a1.5,1.5,0,0,0-.18-.71.71.71,0,0,0-1.27,0,1.7,1.7,0,0,0,0,1.55.69.69,0,0,0,.67.41.73.73,0,0,0,.63-.42A1.64,1.64,0,0,0,32.66,44Z"/><path class="cls-16" d="M27.68,43.22l-.41-.43a1.31,1.31,0,0,1,.85-.58,2.36,2.36,0,0,1,.53,0,1.14,1.14,0,0,1,.93,1.68,2.89,2.89,0,0,1-.33.45c-.24.27-.5.53-.77.81a1.74,1.74,0,0,0,.64,0h.65v.64H27.41a3.53,3.53,0,0,1,0-.46.55.55,0,0,1,.14-.21l1-1.08a1.7,1.7,0,0,0,.27-.33.56.56,0,0,0-.73-.82A3.65,3.65,0,0,0,27.68,43.22Z"/></svg>