<?xml version="1.0" standalone="no"?><!DOCTYPE svg PUBLIC "-//W3C//DTD SVG 1.1//EN" "http://www.w3.org/Graphics/SVG/1.1/DTD/svg11.dtd"><svg t="1592885161344" class="icon" viewBox="0 0 1024 1024" version="1.1" xmlns="http://www.w3.org/2000/svg" p-id="2829" xmlns:xlink="http://www.w3.org/1999/xlink" width="200" height="200"><defs><style type="text/css"></style></defs><path d="M501.157647 227.689412A912.865882 912.865882 0 0 1 464.112941 361.411765l-75.89647 207.811764h233.712941l-71.68-195.162353q-33.430588-88.847059-49.091765-146.371764z" fill="#080709" p-id="2830"></path><path d="M0 0v1024h1024V0z m730.654118 858.955294l-80.414118-213.534118H361.411765l-75.294118 213.534118H189.44L454.174118 153.6h98.183529l282.202353 705.355294z" fill="#080709" p-id="2831"></path><path d="M454.174118 153.6L189.44 858.955294H286.117647l75.294118-213.534118h288.225882l80.414118 213.534118h103.905882L552.357647 153.6z m-65.957647 415.623529l75.89647-207.811764a912.865882 912.865882 0 0 0 37.044706-134.625883q15.661176 57.524706 49.091765 146.371765l71.68 195.162353z" fill="#FFFFFF" p-id="2832"></path></svg>