<?xml version="1.0" standalone="no"?><!DOCTYPE svg PUBLIC "-//W3C//DTD SVG 1.1//EN" "http://www.w3.org/Graphics/SVG/1.1/DTD/svg11.dtd"><svg t="1592539869027" class="icon" viewBox="0 0 7987 1024" version="1.1" xmlns="http://www.w3.org/2000/svg" p-id="4567" xmlns:xlink="http://www.w3.org/1999/xlink" width="1559.9609375" height="200"><defs><style type="text/css"></style></defs><path d="M31.402667 1024L424.618667 0h146.090666l419.157334 1024h-154.282667l-119.466667-309.930667H288.085333L175.445333 1024z m295.594666-420.522667h347.477334L567.296 320.170667c-32.768-86.016-56.661333-157.013333-72.362667-212.309334a1285.461333 1285.461333 0 0 1-55.296 195.242667zM1608.362667 1024v-125.610667l524.288-656.042666c37.546667-46.421333 73.045333-86.698667 106.496-121.514667h-571.392V0h733.184v120.832l-574.805334 710.656-62.122666 71.68h653.994666V1024zM3064.490667 1024l393.216-1024h146.090666l419.157334 1024h-154.282667l-119.466667-309.930667h-428.714666L3208.533333 1024z m295.594666-420.522667h346.794667l-106.496-283.306666c-32.768-86.016-57.344-157.013333-73.045333-212.309334a1285.461333 1285.461333 0 0 1-55.296 195.242667zM4642.133333 1024v-125.610667l524.288-656.042666c37.546667-46.421333 72.362667-86.698667 105.813334-121.514667h-571.392V0H5434.026667v120.832l-574.805334 710.656-62.122666 71.68h653.994666V1024zM6227.285333 1024V0h136.533334v1024zM7191.210667 1024V0h740.693333v120.832h-604.842667v313.344h566.613334v120.149333h-566.613334v348.842667h628.736V1024z" fill="#050708" p-id="4568"></path></svg>