<svg width="16" height="20" viewBox="0 0 16 20" fill="none" xmlns="http://www.w3.org/2000/svg">
<path d="M2.3428 13.5767C1.60045 12.8404 1.01123 11.9644 0.609124 10.9992C0.207022 10.0341 0 8.99884 0 7.95327C0 6.9077 0.207022 5.87248 0.609124 4.90732C1.01123 3.94216 1.60045 3.06617 2.3428 2.32988C5.46691 -0.776627 10.5327 -0.776627 13.6568 2.32988C14.3993 3.06619 14.9886 3.94223 15.3908 4.90746C15.7929 5.87269 16 6.90801 16 7.95367C16 8.99934 15.7929 10.0347 15.3908 10.9999C14.9886 11.9651 14.3993 12.8412 13.6568 13.5775L7.9998 19.2009L2.3428 13.5767ZM7.9998 10.4006C8.31498 10.4006 8.62708 10.3385 8.91827 10.2179C9.20946 10.0972 9.47404 9.92046 9.69691 9.69759C9.91978 9.47472 10.0966 9.21014 10.2172 8.91895C10.3378 8.62775 10.3999 8.31566 10.3999 8.00047C10.3999 7.68529 10.3378 7.37319 10.2172 7.082C10.0966 6.79081 9.91978 6.52623 9.69691 6.30336C9.47404 6.08049 9.20946 5.9037 8.91827 5.78309C8.62708 5.66247 8.31498 5.60039 7.9998 5.60039C7.36326 5.60039 6.75279 5.85326 6.30268 6.30336C5.85258 6.75346 5.59972 7.36393 5.59972 8.00047C5.59972 8.63702 5.85258 9.24749 6.30268 9.69759C6.75279 10.1477 7.36326 10.4006 7.9998 10.4006Z" fill="#333333"/>
</svg>
