<svg id="图层_1" data-name="图层 1" xmlns="http://www.w3.org/2000/svg" xmlns:xlink="http://www.w3.org/1999/xlink" viewBox="0 0 15 18"><defs><style>.cls-1,.cls-2{fill:none;}.cls-1{clip-rule:evenodd;}.cls-3{clip-path:url(#clip-path);}.cls-4{clip-path:url(#clip-path-2);}.cls-5{clip-path:url(#clip-path-3);}.cls-6{clip-path:url(#clip-path-4);}.cls-7{fill:#333;}</style><clipPath id="clip-path"><path class="cls-1" d="M14.41,357.34a5.91,5.91,0,0,1-5.82,6,6,6,0,0,1,0-12,5.91,5.91,0,0,1,5.82,6"/></clipPath><clipPath id="clip-path-2"><path class="cls-1" d="M11.36,355.55a2.76,2.76,0,0,0-2.57-2.19,3,3,0,0,0-2.29.82c-.24.22-.71.76-.68,1s.28.32.44.43l.12.09a.58.58,0,0,1,.13.11c.16.14.37.33.53.33s.23-.16.32-.29a1,1,0,0,1,.1-.15,2,2,0,0,1,.51-.44,1.35,1.35,0,0,1,.56-.13.89.89,0,0,1,1,.71c0,.47-.36.67-.71.85l-.28.16a1.72,1.72,0,0,0-.89,1.93c.32,0,1.12,0,1.69,0a.45.45,0,0,0,.14-.28.52.52,0,0,1,.06-.19,1.93,1.93,0,0,1,.83-.74A2.39,2.39,0,0,0,11,357a2.1,2.1,0,0,0,.35-1.49"/></clipPath><clipPath id="clip-path-3"><path class="cls-1" d="M9.27,359.39c-.27,0-.58,0-.88,0a3.24,3.24,0,0,0-.78.07,5.51,5.51,0,0,0,0,1.44c0,.13,0,.26,0,.37a2.63,2.63,0,0,0,.79.09,9.25,9.25,0,0,0,1-.07,6.65,6.65,0,0,0-.06-1.89Z"/></clipPath><clipPath id="clip-path-4"><path class="cls-2" d="M23.69,162.67v-2c0-1.29,1.5-2.45,3-2.48s3,1.19,3,2.48v2Zm2.51,4h1v3h-1Zm-1-2h3v2h-3Zm6-2v-2a4.33,4.33,0,0,0-4.5-4,4.34,4.34,0,0,0-4.5,4v2h-1a1,1,0,0,0-1,1v7a1,1,0,0,0,1,1h11a1,1,0,0,0,1-1v-7a1,1,0,0,0-1-1Z"/></clipPath></defs><title>gai</title><circle class="cls-7" cx="7.5" cy="4.5" r="4.5" transform="translate(-0.99 6.62) rotate(-45)"/><path class="cls-7" d="M7.51,10C3.37,10,0,12,0,17l0,1H15l0-1C15,12,11.65,10,7.51,10Z"/></svg>