<svg width="458" height="70" viewBox="0 0 458 70" fill="none" xmlns="http://www.w3.org/2000/svg">
<path d="M363.888 35.2936C363.588 35.286 363.302 35.1635 363.09 34.9513C362.878 34.739 362.755 34.4533 362.748 34.1533C362.771 33.8034 362.929 33.4761 363.187 33.2386C363.445 33.0012 363.784 32.8717 364.135 32.8769C364.435 32.8844 364.72 33.007 364.933 33.2192C365.145 33.4314 365.267 33.7171 365.275 34.0171C365.251 34.367 365.094 34.6944 364.836 34.9318C364.578 35.1693 364.238 35.2988 363.888 35.2936Z" fill="#040708"/>
<path d="M364.135 33.0937C363.841 33.0883 363.555 33.1946 363.337 33.3912C363.118 33.5878 362.982 33.8601 362.956 34.1531C362.961 34.3986 363.061 34.6325 363.235 34.806C363.409 34.9796 363.642 35.0795 363.888 35.0849C364.182 35.0915 364.467 34.9861 364.686 34.7902C364.904 34.5942 365.041 34.3224 365.066 34.0298C365.061 33.7839 364.961 33.5496 364.788 33.3753C364.614 33.201 364.38 33.1002 364.135 33.0937Z" fill="#040708"/>
<path d="M280.056 69.9787C277.664 67.1493 276.686 64.7453 276.686 61.6819C276.679 59.0948 277.075 56.5225 277.86 54.0573C269.027 53.5127 263.394 50.8917 263.394 49.3004C263.377 49.1652 263.39 49.0278 263.433 48.8984C263.476 48.7691 263.548 48.6511 263.642 48.5531C263.737 48.455 263.853 48.3796 263.98 48.3322C264.108 48.2848 264.245 48.2667 264.381 48.2792C264.772 48.2792 265.381 48.6494 266.393 49.2664C267.906 50.2348 269.502 51.0663 271.163 51.7511C273.42 52.5858 275.807 53.0179 278.213 53.0276C280.472 47.2198 284.974 42.2757 291.595 38.3272C299.358 33.7894 307.434 29.8083 315.762 26.4138C320.91 24.3289 328.445 20.7166 332.883 17.8574C336.198 15.7768 339.18 13.0665 341.818 10.6795C342.422 10.1307 343.01 9.59883 343.58 9.09251H343.873L344.358 9.64563L344.337 9.93921C343.354 10.7902 342.308 11.6411 341.295 12.4921C338.712 14.6578 336.049 16.8958 333.977 18.9679C332.968 20.1975 332.019 21.2825 331.181 22.2441L330.105 23.4822C331.674 23.6382 333.158 24.269 334.36 25.2905C343.678 21.1166 351.826 12.7176 351.826 7.27144C351.826 2.83794 349.171 1.11476 342.35 1.11476C334.866 1.11476 326.722 4.19947 320 9.57754C313.86 14.4876 310.048 20.389 310.048 24.9757C310.041 25.4985 310.064 26.0212 310.116 26.5414L309.95 26.7712L309.26 26.9074L309.014 26.7372C308.957 26.1717 308.933 25.6035 308.941 25.0352C308.941 20.1635 312.911 13.943 319.298 8.80316C326.25 3.2081 334.679 0 342.418 0C349.651 0 353.14 2.46777 353.14 7.5395C353.14 11.2837 351.162 14.9982 347.26 18.602C344.163 21.4527 339.904 24.1077 335.245 26.0947C336.901 27.8502 337.816 30.1779 337.797 32.5918C337.762 34.9784 337.17 37.3238 336.07 39.442C338.197 38.4251 340.465 37.3146 342.601 36.2382C343.644 34.4937 345.154 33.5789 346.103 33.5789C346.264 33.5898 346.415 33.6629 346.524 33.7827C346.632 33.9024 346.69 34.0597 346.686 34.2214C346.686 34.8341 345.869 35.8169 343.601 36.7743C344.029 37.2025 344.519 37.5626 345.056 37.8422C345.184 37.7954 345.316 37.7316 345.435 37.6763C345.601 37.5752 345.787 37.51 345.979 37.4848C346.46 37.4848 346.499 37.8337 346.499 37.9443C346.499 38.2762 346.209 38.3698 345.843 38.5315C345.583 38.6292 345.328 38.7429 345.082 38.8719C339.857 41.6077 337.236 44.4925 337.236 45.3392C337.236 45.3902 337.236 45.5051 337.589 45.5051C339.061 45.5051 345.248 43.1096 348.503 41.5481L348.681 41.4673C352.804 39.676 354.876 38.774 361.135 36.4424L361.369 36.5062L361.616 36.8168L361.582 37.1146C353.864 42.9182 352.715 44.7988 352.715 45.3987C352.713 45.4214 352.713 45.4442 352.715 45.4668C352.852 45.5091 352.997 45.5221 353.14 45.5051C354.612 45.5051 360.799 43.1096 364.05 41.5481C366.884 40.1508 369.818 38.9647 372.827 37.9996C374.793 37.0168 376.588 36.4296 377.627 36.4296C378.592 36.4296 379.575 36.6679 379.575 38.4379C379.575 38.4804 379.575 38.523 379.575 38.5655L379.784 38.357C383.111 35.0298 386.251 31.8897 395.446 22.3249L395.595 22.2611H397.399L397.59 22.3888L397.714 22.6994L397.663 22.9291C392.08 28.1583 384.868 35.0468 380.643 39.1484C378.184 41.5311 375.538 44.6116 375.538 45.3987C375.534 45.4341 375.534 45.4697 375.538 45.5051C377.078 45.4711 382.63 43.0671 385.796 41.5481C389.07 39.948 392.468 38.6133 395.956 37.5571C397.16 37.0466 398.858 36.4296 399.994 36.4296C400.871 36.4296 401.879 36.6211 401.879 38.1315C401.875 38.4006 401.825 38.6669 401.73 38.9187C402.613 38.1878 403.596 37.5861 404.649 37.1316L404.896 37.2167L405.083 37.5273L405.028 37.8039C402.436 39.676 396.782 44.5861 396.782 45.403C396.778 45.4383 396.778 45.474 396.782 45.5094C398.296 45.4753 404.202 43.1479 407.491 41.5737H407.521C410.457 40.1951 415.18 37.4891 420.532 34.1405C424.489 30.09 429.31 25.3416 433.969 20.7507C435.845 18.9041 437.717 17.0575 439.534 15.2577C447.873 7.00765 453.966 1.4764 456.579 1.4764C457.208 1.4764 457.966 1.76147 457.966 3.11449C457.966 9.44139 438.819 23.7928 422.4 34.1746C415.265 41.3099 411.908 44.9733 411.725 45.4668C411.722 45.4823 411.722 45.4981 411.725 45.5136C411.862 45.5559 412.007 45.5689 412.15 45.5519C413.622 45.5519 419.809 43.1564 423.064 41.5949H423.153C423.634 41.5949 423.668 41.9438 423.668 42.0502C423.661 42.1751 423.617 42.2952 423.541 42.3947C423.465 42.4941 423.361 42.5683 423.242 42.6076C421.158 43.5479 414.192 46.6071 411.84 46.6071C410.686 46.6071 410.512 46.0114 410.512 45.654C410.512 45.0796 411.788 43.3564 417.869 37.0168C414.971 38.7187 410.721 41.1567 407.746 42.5863L407.695 42.6118C404.291 44.2159 398.458 46.6071 396.365 46.6071C396.267 46.6195 396.167 46.6105 396.073 46.5805C395.979 46.5505 395.892 46.5004 395.819 46.4336C395.746 46.3668 395.689 46.2849 395.651 46.1936C395.613 46.1023 395.595 46.0039 395.599 45.9051C395.695 45.2828 395.952 44.6963 396.344 44.2031C393.986 45.6583 391.378 46.6241 389.715 46.6241C388.438 46.6241 387.642 46.3731 387.642 45.1137C387.642 43.3139 389.676 41.4588 391.229 40.3015C389.791 40.9142 388.149 41.6247 385.945 42.6288C380.231 45.3179 376.686 46.6241 375.108 46.6241C375.01 46.6365 374.91 46.6275 374.816 46.5975C374.722 46.5675 374.635 46.5174 374.562 46.4506C374.489 46.3838 374.432 46.3019 374.394 46.2106C374.356 46.1193 374.338 46.0209 374.342 45.9221C374.382 45.2453 374.602 44.5916 374.98 44.0287C372.576 45.7859 369.819 46.9347 367.96 46.9347C366.585 46.9347 365.888 46.322 365.888 45.1137C365.888 43.7181 367.041 42.0289 369.083 40.3951C367.964 40.8206 366.845 41.3056 364.241 42.6033L364.19 42.6288C362.114 43.5649 355.149 46.6241 352.796 46.6241C351.643 46.6241 351.468 46.0284 351.468 45.671C351.468 44.0925 353.213 41.9864 356.944 39.0676C354.659 39.9739 352.583 40.8886 348.651 42.6288C346.575 43.5649 339.61 46.6241 337.257 46.6241C336.372 46.6241 336.057 46.0795 336.057 45.6115C336.057 43.2203 338.755 40.8078 344.073 38.4379C343.567 38.107 343.085 37.7401 342.631 37.3401C341.397 37.9273 340.108 38.557 338.742 39.225C337.602 39.7866 336.423 40.3653 335.287 40.9269C331.309 47.5772 323.637 52.4149 317.025 52.4149C313.902 52.4149 312.115 50.93 312.115 48.3388C312.115 45.7476 313.954 42.7523 317.03 40.3908C320.224 37.931 324.129 36.5698 328.16 36.5105C329.348 36.5096 330.534 36.5792 331.713 36.7189L331.892 36.953L331.824 37.438L331.594 37.6167C330.453 37.4998 329.307 37.4529 328.16 37.4763C321.638 37.4763 313.222 42.7097 313.222 48.2665C313.222 50.1556 314.583 51.2448 316.957 51.2448C322.004 51.2448 328.445 47.3474 332.619 41.7694C332.832 41.4886 333.045 41.195 333.245 40.8929C335.257 37.9401 336.321 34.9915 336.321 32.362C336.365 30.2208 335.573 28.1468 334.113 26.5797C331.461 27.6668 328.677 28.3965 325.833 28.7497L324.578 30.341C318.715 37.8039 312.286 43.616 305.478 47.6027C298.277 51.914 290.044 54.1985 281.651 54.2147C281.153 54.2147 280.655 54.1934 280.175 54.1764C279.694 54.1594 279.353 54.1466 278.966 54.1424C278.168 56.5756 277.766 59.1211 277.775 61.6819C277.775 64.6602 278.596 66.6302 280.906 69.2214V69.5149L280.353 70L280.056 69.9787ZM281.757 53.1084C296.649 53.1084 313.09 40.9908 323.518 29.656L324.254 28.805C322.493 28.7582 321.182 28.0604 321.182 27.1456C321.182 25.214 324.437 23.6482 328.764 23.4865C329.811 22.3207 330.849 21.0655 331.947 19.738C326.832 22.5961 321.554 25.1533 316.14 27.3967C307.859 30.6863 299.844 34.6125 292.169 39.1399C285.893 42.8671 281.609 47.5517 279.434 53.0744L281.757 53.1084ZM377.644 37.5103C375.231 37.5103 366.913 43.0416 366.913 45.1945C366.913 45.3604 366.913 45.8583 367.887 45.8583C369.589 45.8583 372.185 44.7733 374.619 43.0288C376.971 41.3269 378.495 39.5314 378.495 38.4209C378.495 37.5486 378.29 37.5103 377.644 37.5103ZM400.02 37.5103C397.467 37.5103 388.664 43.0416 388.664 45.1945C388.664 45.4072 388.664 45.5477 389.638 45.5477C393.31 45.5477 400.866 40.544 400.866 38.1102C400.866 37.6422 400.769 37.5103 400.02 37.5103ZM456.451 2.51458C454.051 2.51458 447.469 9.09675 440.5 16.0661L425.668 30.9026C432.749 26.3417 439.567 21.3855 446.091 16.0576C453.141 10.169 456.868 5.73121 456.868 3.17833C456.868 2.75285 456.655 2.51458 456.451 2.51458ZM327.888 24.563C324.778 24.78 322.408 25.8394 322.408 27.1159C322.408 27.3967 323.186 27.8051 324.412 27.8051H325.148L327.888 24.563ZM326.705 27.652C328.969 27.3297 331.18 26.7058 333.279 25.7968C332.147 24.9414 330.771 24.4703 329.352 24.4523L326.705 27.652Z" fill="#040708"/>
<path d="M457.757 3.11874C457.757 2.2465 457.447 1.68913 456.579 1.68913C453.966 1.68913 447.38 7.77776 439.67 15.4236C433.288 21.7633 426.183 28.6603 420.651 34.3192C415.307 37.672 410.521 40.4078 407.602 41.7779H407.559C404.436 43.2713 398.275 45.7306 396.727 45.7306C396.603 45.7306 396.544 45.6072 396.544 45.42C396.544 44.4286 402.632 39.2676 404.87 37.6507L404.683 37.3401C403.832 37.6507 402.509 38.523 401.143 39.642C401.428 39.1924 401.597 38.6794 401.637 38.1485C401.637 36.97 401.015 36.6594 399.96 36.6594C399.028 36.6594 397.599 37.0848 395.982 37.7784C392.503 38.8286 389.115 40.159 385.851 41.7566C382.745 43.2458 377.027 45.7306 375.474 45.7306C375.346 45.7306 375.287 45.6072 375.287 45.42C375.287 44.4286 378.456 40.9482 380.443 39.0378C384.362 35.2468 391.57 28.3455 397.463 22.8142L397.339 22.5036H395.535C386.336 32.0769 383.166 35.268 379.873 38.54L379.124 39.2846C379.247 39.0327 379.311 38.7563 379.312 38.4762C379.312 36.987 378.631 36.6764 377.571 36.6764C376.512 36.6764 374.712 37.2976 372.849 38.2294C369.844 39.1943 366.914 40.3789 364.084 41.7736C360.978 43.2628 354.638 45.7476 353.085 45.7476C352.587 45.7476 352.464 45.688 352.464 45.437C352.464 44.5052 354.638 42.0842 361.399 36.987L361.152 36.6764C354.812 39.0378 352.821 39.9058 348.537 41.7821C345.426 43.2713 339.087 45.7561 337.534 45.7561C337.159 45.7561 336.976 45.6327 336.976 45.386C336.976 44.3903 339.708 41.4715 344.929 38.7357C345.737 38.3102 346.235 38.3102 346.235 37.9911C346.235 37.8039 346.111 37.7401 345.924 37.7401C345.605 37.8434 345.294 37.9685 344.992 38.1145C344.31 37.776 343.698 37.3111 343.188 36.7445C345.49 35.8127 346.422 34.8213 346.422 34.2596C346.423 34.1551 346.385 34.054 346.316 33.9755C346.247 33.897 346.151 33.8467 346.048 33.8342C345.239 33.8342 343.75 34.6426 342.691 36.4424C340.35 37.6124 337.849 38.8548 335.547 39.9398C336.813 37.7058 337.506 35.193 337.563 32.6258C337.579 31.4057 337.348 30.1949 336.884 29.0662C336.421 27.9374 335.734 26.9137 334.866 26.0564C343.444 22.4611 352.919 15.6108 352.919 7.59054C352.919 3.02514 349.941 0.259521 342.405 0.259521C325.459 0.259521 309.137 15.3385 309.137 25.0863C309.13 25.6402 309.152 26.1942 309.205 26.7457L309.899 26.6095C309.844 26.0809 309.82 25.5496 309.826 25.0182C309.826 15.6109 325.735 0.948797 342.337 0.948797C349.805 0.948797 352.021 3.16129 352.021 7.331C352.021 13.0027 343.512 21.508 334.313 25.5883C333.027 24.4552 331.392 23.7974 329.679 23.7247C330.854 22.3377 332.232 20.8187 333.828 18.8828C336.734 15.9767 340.746 12.7942 344.205 9.82005L343.72 9.26693C340.606 12.0326 337.078 15.4917 332.998 18.0531C328.709 20.8187 321.31 24.4353 315.847 26.6265C307.526 30.018 299.459 33.9993 291.705 38.54C284.859 42.6203 280.498 47.6708 278.358 53.2744C275.879 53.2659 273.42 52.8209 271.095 51.9596C267.563 50.5768 265.138 48.5005 264.385 48.5005C263.9 48.5005 263.624 48.777 263.624 49.3301C263.624 50.5087 268.397 53.3424 278.149 53.8956C277.316 56.4169 276.895 59.0562 276.903 61.7116C276.903 64.8262 277.941 67.1748 280.226 69.8723L280.779 69.3873C278.494 66.8344 277.596 64.8261 277.596 61.7286C277.587 59.0782 278.009 56.444 278.847 53.9296C279.749 53.9296 280.715 54.0019 281.685 54.0019C299.045 54.0019 313.294 44.3861 324.429 30.2091L325.744 28.5497C328.637 28.1977 331.468 27.4519 334.16 26.3329C335.7 27.9301 336.545 30.0713 336.513 32.2897C336.513 35.0978 335.317 38.1315 333.402 40.9354C333.198 41.2333 332.977 41.5311 332.768 41.8204C328.807 47.1134 322.387 51.381 316.94 51.381C314.388 51.381 312.996 50.1343 312.996 48.1984C312.996 43.4287 320.191 37.204 328.143 37.204C329.298 37.1813 330.453 37.2268 331.603 37.3401L331.671 36.8551C330.5 36.7192 329.322 36.651 328.143 36.6508C319.915 36.6508 312.303 43.033 312.303 48.2707C312.303 50.6194 313.826 52.1426 317.009 52.1426C323.684 52.1426 331.317 47.1176 335.121 40.7142C337.64 39.5101 340.295 38.1613 342.648 37.0593C343.219 37.5802 343.844 38.0394 344.512 38.4293C337.798 41.3481 336.245 43.8372 336.245 45.5774C336.245 46.0029 336.555 46.3858 337.24 46.3858C339.368 46.3858 345.384 43.833 348.554 42.4076C352.902 40.4802 355.017 39.5484 357.748 38.4889L357.812 38.6166C353.71 41.7226 351.66 44.0202 351.66 45.637C351.66 46.1986 352.157 46.3858 352.779 46.3858C354.906 46.3858 360.918 43.833 364.088 42.4076L364.135 42.3821C366.019 41.4034 367.956 40.5313 369.938 39.7696L369.998 39.893C367.824 41.4503 366.083 43.3734 366.083 45.0541C366.083 46.0497 366.581 46.6709 367.947 46.6709C369.998 46.6709 373.053 45.2413 375.406 43.3734L375.529 43.5011C374.848 44.4329 374.538 45.2413 374.538 45.8625C374.538 46.1731 374.721 46.3603 375.095 46.3603C377.223 46.3603 382.677 43.8712 385.847 42.3821C388.706 41.0758 390.634 40.2547 392.374 39.5228L392.438 39.6462C389.949 41.2631 387.838 43.3139 387.838 45.0541C387.838 46.0497 388.332 46.3603 389.702 46.3603C391.629 46.3603 394.735 45.0541 397.22 43.3139C396.369 44.3691 395.79 45.3009 395.79 45.8668C395.79 46.1774 395.978 46.3646 396.352 46.3646C398.48 46.3646 404.436 43.8798 407.598 42.3863L407.644 42.3608C410.874 40.8078 415.448 38.1485 419.039 36.0467C414.129 41.1524 410.708 44.8711 410.708 45.6157C410.708 46.1773 411.206 46.3646 411.827 46.3646C413.954 46.3646 419.971 43.8117 423.14 42.3863C423.387 42.2587 423.451 42.1353 423.451 42.0119C423.451 41.8885 423.323 41.7651 423.14 41.7651C420.03 43.2543 413.69 45.7391 412.137 45.7391C411.64 45.7391 411.516 45.6795 411.516 45.4285C411.516 45.003 416.052 40.2079 422.268 33.9958C437.807 24.1885 457.757 9.45839 457.757 3.11874ZM440.355 15.9427C447.874 8.42023 454.03 2.32735 456.451 2.32735C456.762 2.32735 457.072 2.63795 457.072 3.17831C457.072 8.96059 439.113 22.5079 424.132 32.1408L440.355 15.9427ZM323.65 29.7921C314.107 40.1653 297.368 53.3084 281.736 53.3084H279.111C281.183 47.8452 285.404 42.9352 292.041 38.991C299.727 34.4581 307.751 30.5263 316.043 27.2307C321.715 24.8818 327.236 22.1819 332.573 19.1466L332.645 19.2147C331.33 20.806 330.092 22.3249 328.841 23.712C324.688 23.8481 321.37 25.299 321.37 27.1669C321.37 28.0179 322.753 28.622 324.412 28.622H324.688L323.65 29.7921ZM325.242 27.9923H324.391C323.148 27.9923 322.178 27.5668 322.178 27.0946C322.178 25.6394 324.876 24.4651 328.335 24.3289L325.242 27.9923ZM326.212 27.9242L329.254 24.2609C330.869 24.2568 332.434 24.8183 333.679 25.8479C331.309 26.9146 328.792 27.6147 326.212 27.9242ZM367.887 46.0667C366.951 46.0667 366.705 45.6412 366.705 45.2158C366.705 42.9182 375.095 37.3231 377.644 37.3231C378.388 37.3231 378.699 37.4465 378.699 38.4421C378.699 40.9695 371.738 46.0667 367.887 46.0667ZM389.638 45.7519C388.706 45.7519 388.459 45.6285 388.459 45.1945C388.459 42.8969 397.471 37.3018 400.02 37.3018C400.764 37.3018 401.075 37.4252 401.075 38.1102C401.075 40.6589 393.493 45.7519 389.638 45.7519Z" fill="#040708"/>
<path d="M0.0341797 48.5543L11.5017 19.623H15.7575L27.9748 48.5543H23.473L19.9939 39.7924H7.50974L4.23183 48.5543H0.0341797ZM8.65009 36.6729H18.7686L15.6576 28.6631C14.7066 26.2288 13.9985 24.2293 13.5379 22.6644C13.1501 24.5435 12.6118 26.3902 11.928 28.1878L8.64859 36.6714L8.65009 36.6729ZM46.01 48.5543V45.0014L61.304 26.4737C62.2786 25.2817 63.3113 24.1357 64.3986 23.0397H47.7421V19.623H69.1254V23.0382L52.3631 43.1077L50.552 45.1391H69.6173V48.5557L46.01 48.5543ZM88.462 48.5543L99.931 19.623H104.187L116.403 48.5543H111.904L108.422 39.7924H95.9361L92.6567 48.5543H88.462ZM97.0809 36.6729H107.202L104.081 28.6616C103.133 26.2274 102.426 24.2278 101.964 22.6629C101.579 24.5426 101.04 26.3895 100.354 28.1864L97.0794 36.67L97.0809 36.6729ZM134.436 48.5543V45.0014L149.733 26.4737C150.707 25.2816 151.738 24.1356 152.825 23.0397H136.17V19.623H157.553V23.0382L140.791 43.1077L138.978 45.1391H158.042V48.5557L134.436 48.5543ZM180.691 48.5543V19.623H184.64V48.5543H180.691ZM208.794 48.5543V19.623H230.386V23.0382H212.749V31.9H229.268V35.2906H212.749V45.1391H231.076V48.5557L208.794 48.5543Z" fill="#040708"/>
</svg>
