<svg width="106" height="22" viewBox="0 0 106 22" fill="none" xmlns="http://www.w3.org/2000/svg">
<path d="M0 0H106L100 11L106 22H0V0Z" fill="#F2F0E3"/>
<path fill-rule="evenodd" clip-rule="evenodd" d="M11 16C13.7614 16 16 13.7614 16 11C16 8.23858 13.7614 6 11 6C8.23858 6 6 8.23858 6 11C6 13.7614 8.23858 16 11 16ZM11 17C14.3137 17 17 14.3137 17 11C17 7.68629 14.3137 5 11 5C7.68629 5 5 7.68629 5 11C5 14.3137 7.68629 17 11 17Z" fill="#A7B0AD"/>
<path fill-rule="evenodd" clip-rule="evenodd" d="M10.5 11.5V8H11.5V12.5H8V11.5H10.5Z" fill="#A7B0AD"/>
</svg>
