<svg t="1600688972655" class="icon" viewBox="0 0 1024 1024" version="1.1" xmlns="http://www.w3.org/2000/svg" p-id="4954" width="200" height="200"><path d="M512 120.470588A391.529412 391.529412 0 1 1 120.470588 512 392.131765 392.131765 0 0 1 512 120.470588m0-60.235294A451.764706 451.764706 0 1 0 963.764706 512 451.764706 451.764706 0 0 0 512 60.235294z" fill="#FFFFFF" p-id="4955"></path><path d="M512 60.235294A451.764706 451.764706 0 1 1 60.235294 512 451.764706 451.764706 0 0 1 512 60.235294m0-60.235294A512 512 0 1 0 1024 512 512.602353 512.602353 0 0 0 512 0z" fill="#333333" p-id="4956"></path></svg>