<svg xmlns="http://www.w3.org/2000/svg" xmlns:xlink="http://www.w3.org/1999/xlink" viewBox="0 0 20.33 15"><defs><style>.cls-1,.cls-2{fill:#fff;}.cls-1{clip-rule:evenodd;}.cls-2,.cls-5{fill-rule:evenodd;}.cls-3{clip-path:url(#clip-path);}.cls-4,.cls-5{fill:#a6afab;}</style><clipPath id="clip-path"><path class="cls-1" d="M10.27,5.92,8.69,7.5l1.58,1.58ZM18.37,1,20,2.66,18.38,4.27,20,5.89,18.38,7.5,20,9.11l-1.62,1.62L20,12.34,18.37,14l-1.62-1.61L15.14,14l-1.62-1.61L11.91,14l-1.63-1.63h0V9.15L8.68,10.74,7.05,9.11,8.66,7.5,7.05,5.89,8.68,4.26l1.59,1.59V2.66h0L11.91,1l1.61,1.61L15.14,1l1.61,1.61Z"/></clipPath></defs><g id="图层_2" data-name="图层 2"><g id="图层_1-2" data-name="图层 1"><path class="cls-2" d="M10.27,5.92,8.69,7.5l1.58,1.58ZM18.37,1,20,2.66,18.38,4.27,20,5.89,18.38,7.5,20,9.11l-1.62,1.62L20,12.34,18.37,14l-1.62-1.61L15.14,14l-1.62-1.61L11.91,14l-1.63-1.63h0V9.15L8.68,10.74,7.05,9.11,8.66,7.5,7.05,5.89,8.68,4.26l1.59,1.59V2.66h0L11.91,1l1.61,1.61L15.14,1l1.61,1.61Z"/><g class="cls-3"><path class="cls-4" d="M15.14,14.29l-1.62-1.61-1.61,1.61-1.73-1.72h-.13V9.71L8.68,11.07l-2-2L8.34,7.5,6.72,5.89l2-2L10,5.29V2.43h.14L11.91.71l1.61,1.61L15.14.71l1.61,1.61L18.37.71l2,2L18.71,4.27l1.62,1.62L18.71,7.5l1.62,1.61-1.62,1.62,1.62,1.61-2,1.95-1.62-1.61ZM16.75,12l1.62,1.61,1.3-1.3-1.61-1.61,1.61-1.62L18.06,7.5l1.61-1.61L18.06,4.27l1.61-1.61-1.3-1.3L16.75,3,15.14,1.36,13.52,3,11.91,1.36,10.5,2.76v9.48l1.41,1.4L13.52,12l1.62,1.61ZM7.37,9.11l1.31,1.31L10,9.11l-1.3-1.3ZM9,7.5l1,1v-2ZM7.37,5.89l1.31,1.3L10,5.89,8.68,4.58Z"/></g><polygon class="cls-5" points="10.51 0 12.51 1.15 11.37 3.13 13.35 4.27 12.21 6.24 14.18 7.38 13.04 9.36 15.02 10.5 13.87 12.49 11.89 11.36 10.75 13.33 8.77 12.19 7.63 14.16 5.65 13.03 4.51 15 2.51 13.85 3.65 11.87 1.67 10.73 2.81 8.76 0.84 7.62 1.98 5.64 0 4.5 1.15 2.5 3.13 3.65 4.27 1.67 6.25 2.81 7.39 0.83 9.37 1.98 10.51 0"/></g></g></svg>