<?xml version="1.0" encoding="utf-8"?>
<!-- Generator: Adobe Illustrator 21.0.0, SVG Export Plug-In . SVG Version: 6.00 Build 0)  -->
<svg version="1.1" id="图层_9" xmlns="http://www.w3.org/2000/svg" xmlns:xlink="http://www.w3.org/1999/xlink" x="0px" y="0px"
	 viewBox="0 0 25 25" style="enable-background:new 0 0 25 25;" xml:space="preserve">
<style type="text/css">
	.st0{fill:#B2B2B2;}
	.st1{fill:#FFFFFF;}
</style>
<g>
	<g>
		
			<rect x="2.1" y="11.7" transform="matrix(0.7355 -0.6775 0.6775 0.7355 -5.1606 11.7172)" class="st0" width="20.7" height="1.6"/>
	</g>
	<g>
		<path class="st0" d="M12.5,1.6c6,0,10.9,4.9,10.9,10.9c0,6-4.9,10.9-10.9,10.9c-6,0-10.9-4.9-10.9-10.9C1.7,6.5,6.5,1.6,12.5,1.6
			 M12.5,0C5.6,0,0,5.6,0,12.5C0,19.4,5.6,25,12.5,25C19.4,25,25,19.4,25,12.5C25,5.6,19.4,0,12.5,0L12.5,0z"/>
	</g>
	<g>
		<path class="st1" d="M12.5,3.3c5.1,0,9.2,4.1,9.2,9.2c0,5.1-4.1,9.2-9.2,9.2c-5.1,0-9.2-4.1-9.2-9.2C3.3,7.4,7.4,3.3,12.5,3.3
			 M12.5,1.6c-6,0-10.9,4.9-10.9,10.9c0,6,4.9,10.9,10.9,10.9c6,0,10.9-4.9,10.9-10.9C23.4,6.5,18.5,1.6,12.5,1.6L12.5,1.6z"/>
	</g>
</g>
</svg>
