<?xml version="1.0" encoding="utf-8"?>
<!-- Generator: Adobe Illustrator 16.0.0, SVG Export Plug-In . SVG Version: 6.00 Build 0)  -->
<!DOCTYPE svg PUBLIC "-//W3C//DTD SVG 1.1//EN" "http://www.w3.org/Graphics/SVG/1.1/DTD/svg11.dtd">
<svg version="1.1" id="图层_9" xmlns="http://www.w3.org/2000/svg" xmlns:xlink="http://www.w3.org/1999/xlink" x="0px" y="0px"
	 width="960px" height="560px" viewBox="0 0 960 560" enable-background="new 0 0 960 560" xml:space="preserve">
<g>
	<g>
		<path fill="var(--color-1e1e1e)" d="M480,35.84c134.4,0,244.16,109.76,244.16,244.16c0,134.4-109.76,244.16-244.16,244.16
			c-134.4,0-244.16-109.76-244.16-244.16C238.08,145.6,345.6,35.84,480,35.84 M480,0C325.44,0,200,125.44,200,280
			c0,154.56,125.44,280,280,280c154.56,0,280-125.44,280-280C760,125.44,634.56,0,480,0L480,0z"/>
	</g>
	<g>
		<path fill="#FFFFFF" d="M480,73.92c114.24,0,206.08,91.84,206.08,206.08S594.24,486.08,480,486.08S273.92,394.24,273.92,280
			S365.76,73.92,480,73.92 M480,35.84C345.6,35.84,235.84,145.6,235.84,280c0,134.4,109.76,244.16,244.16,244.16
			c134.4,0,244.16-109.76,244.16-244.16C724.16,145.6,614.4,35.84,480,35.84L480,35.84z"/>
	</g>
</g>
</svg>
